<svg version="1.1" id="vis_t1" xmlns="http://www.w3.org/2000/svg" x="0" y="0" viewBox="0 0 1280 1024" style="enable-background:new 0 0 1280 1024" xml:space="preserve"><style>#vis_t1 .st0{fill:#0a9396;fill:var(--c1)}#vis_t1 .st1{fill:#94d2bd;fill:var(--c2, var(--c1))}#vis_t1 .st2{fill:#ae2112;fill:var(--c3, var(--c2, var(--c1)))}#vis_t1 .st3{fill:#ee9b00;fill:var(--c4, var(--c2, var(--c1)))}#vis_t1 .st4{fill:#9a2226;fill:var(--c5, var(--c3, var(--c1)))}#vis_t1 .st5{fill:#bb3e04;fill:var(--c6, var(--c4, var(--c2, var(--c1))))}#vis_t1 .st6{fill:#015f73;fill:var(--c7, var(--c4, var(--c2, var(--c1))))}#vis_t1 .st7{fill:#bb3e04;fill:var(--c8, var(--c5, var(--c3, var(--c1))))}</style><path class="st10" style="fill:#f7f7f8" d="M0 0h1280v1024H0z"></path><path class="st0" d="M860.38 743.12c-3.39 9.26-7.99 17.54-13.01 25.6-23.13 37.14-54.61 64.7-94.78 82.06-26.1 11.28-53.25 14.37-81.15 8.07-20.36-4.59-37.05-14.78-49.22-32.25-6.81-9.78-12.34-19.87-14.57-31.66-3.11-16.41-1.12-32.22 5.38-47.52 13.3-31.29 36.89-50.74 69.14-60.34 20.23-6.02 40.92-8.47 61.97-8.83 28.36-.48 56.69.6 85.02 1.63 8.92.32 17.86.05 27.18.05.21-.32.71-.98 1.1-1.69 10.79-19.43 20.18-39.51 27.83-60.38 1.57-4.29 2.45-8.85 3.45-13.32.29-1.3.11-2.79-.19-4.12-.95-4.24-3.92-5.23-6.87-2.01-1.81 1.98-3.36 4.59-4 7.18-1.27 5.12-2.09 10.39-2.64 15.64-.76 7.26-1.91 14.41-5.05 21.05-3.96 8.41-9.79 14.9-19.09 17.55-8.66 2.46-15.98.09-22.12-6.24-3.78-3.9-6-8.68-7.4-13.9-1.72-6.42-1.81-12.97-1.76-19.54.01-1.08 0-2.16-.53-3.43-.4.94-.87 1.86-1.2 2.83-1.61 4.76-3.28 9.5-4.76 14.3-2.17 6.99-5.33 13.48-9.3 19.61-2.63 4.06-5.95 7.46-10.17 9.79-6.36 3.52-13.06 3.85-19.03-.4-5.69-4.06-6.82-10.41-5.6-16.95.92-4.92 2.64-9.68 3.9-14.54 1.08-4.18 2.2-8.36 2.93-12.61.34-1.99.1-4.23-.43-6.2-2-7.5-9.83-10.11-15.74-5.11-2.18 1.84-4.21 4.26-5.33 6.85-2.09 4.83-3.6 9.93-5.09 15-2.12 7.22-3.82 14.57-6.06 21.76-2.15 6.9-6.08 12.82-11.12 18.02-6.34 6.53-13.94 7.8-22.34 5.31-7.82-2.32-13.73-9.84-13.9-18.04-.09-4.43.65-8.87 1.04-13.55h-5.16c-.34 1.13-.71 2.58-1.21 3.98-2.47 6.96-4.79 13.99-7.53 20.85-2.34 5.86-5.83 11.12-10 15.89-13.06 14.94-33.94 12.93-43.91-4.23-.28-.48-.59-.94-1.24-1.98-.7 1.37-1.23 2.37-1.73 3.39-2.81 5.61-5.42 11.33-8.48 16.8-2.67 4.78-6.29 8.88-10.56 12.36-3.63 2.96-7.66 5.08-12.3 5.96-6.6 1.25-12.61-1.26-16.27-6.94-2.88-4.46-4.11-9.46-4.26-14.7-.3-10.26 1.55-20.28 3.51-30.29 1.47-7.53 3.08-15.04 4.35-22.6.53-3.14.59-6.41.45-9.6-.25-5.55-3.42-9.16-8.64-11.83-.82 4.56-1.49 8.77-2.33 12.96-3.59 17.82-8.37 35.31-15.2 52.16-2.5 6.17-5.85 12.04-9.19 17.82-2.61 4.51-6.41 8.09-10.92 10.8-8.86 5.33-19.09 4.39-26.71-2.62-7.83-7.21-11.95-16.39-13.39-26.8-1.77-12.72.32-25.05 4.38-37.09.84-2.49 2.12-4.88 3.55-7.08.96-1.47 2.38-2.81 3.89-3.71 3.45-2.05 6.66-.71 7.94 3.12.44 1.32.59 2.73 1.02 4.05 3.66 11.21 14.84 14.65 23.96 7.26 2.13-1.73 3.99-3.92 5.58-6.18 4.61-6.6 8.52-18.64 9.09-27.4-1.68-.7-3.46-1.4-5.21-2.18-13.42-5.98-21.12-18.81-19.94-33.27.48-5.83 2.89-10.75 7.39-14.53 4.71-3.97 10.04-5.51 15.97-3.19 6.36 2.49 10.29 7.06 11.05 14 .38 3.46.33 6.98.82 10.42 1.12 7.75 4.12 10.54 11.95 11.51 2.36.29 4.72.52 7.07.85 1.38.19 2.75.47 4.11.79 8.31 2.01 12.48 7.67 11.75 16.24-.4 4.72-1.31 9.41-1.66 14.13-.2 2.74-.15 5.62.5 8.27 1.04 4.27 4.68 5.42 7.99 2.58 2.09-1.79 3.97-3.97 5.44-6.3 4.47-7.1 8.19-14.58 10.84-22.59 3.71-11.18 8.15-22 16.17-30.95 6.63-7.4 14.3-12.99 24.56-13.76 11.14-.84 19.78 3.55 24.74 12.91 3.62 6.84 5.16 14.11 5.19 21.77.01 1.82-.06 3.64.03 5.45.12 2.55.94 3.46 3.39 4 3.82.84 7.09-.52 9.33-3.99 3.46-5.39 5.1-11.41 6.19-17.66 1.19-6.85.66-13.64-.41-20.43-.68-4.32-.77-8.65.5-12.87 2.22-7.41 7.11-12.24 14.56-14.26 8.17-2.22 15.05 3.18 14.62 11.66-.17 3.28-1.01 6.64-2.15 9.74-4.5 12.18-9.02 24.35-11.6 37.13-.61 3.01-1.19 6.03-1.6 9.07-.18 1.36-.14 2.83.2 4.14.25.93 1.06 2.18 1.84 2.37.84.2 2.39-.39 2.84-1.12 1.52-2.46 3.26-5.01 3.89-7.77 1.64-7.2 2.86-14.5 4.01-21.79 2.06-13.15 6.13-25.5 13.95-36.43 3.72-5.2 8.17-9.56 14.04-12.26 9.77-4.51 22.08-2.51 29.04 7.54 5.09 7.34 6.23 15.5 4.82 24.02-1.04 6.32-2.68 12.54-4.21 18.77-1.03 4.2-2.41 8.31-3.5 12.5-.49 1.88-.78 3.84-.92 5.78-.22 3.12.96 5.25 3.22 6.25 2.59 1.15 4.81.21 6.35-1.75 2.22-2.83 4.53-5.75 5.99-8.99 3.09-6.86 5.8-13.91 8.41-20.98 5.16-13.94 11.56-27.22 19.84-39.59 3.85-5.75 8.55-10.71 14.08-14.8 6.69-4.95 14.33-6.71 22.57-5.84 3.97.42 7.58 1.82 10.74 4.3.97.76 1.96 1.52 3.3 2.55.58-3.21 1.03-6.08 1.64-8.91 1.48-7 3.39-13.88 7.56-19.82 1.74-2.48 3.81-4.89 6.2-6.72 7.03-5.37 15.89-2.15 17.93 6.48.67 2.81.91 5.84.7 8.72-.28 3.74-.75 7.57-1.95 11.1-4.27 12.61-6.56 25.68-9.3 38.64-5.33 25.26-10.55 50.54-15.78 75.82-3.08 14.9-6.02 29.82-10.87 44.29-.13.37-.07.81-.1 1.23 3.37 0 6.7.32 9.95-.06 10.39-1.21 20.79-2.46 31.12-4.12 10.32-1.66 20.68-3.36 30.81-5.92 10.94-2.76 21.68-6.34 32.39-9.91 6.63-2.21 12.83-5.51 18.45-9.74 6.96-5.24 11.92-11.78 12.55-20.84.4-5.82-.85-11.4-3.05-16.76-4.23-10.29-10.59-19.14-19.45-25.82-20.53-15.46-43.69-23.9-69.48-24.7-5.61-.17-7.54-1.93-7.63-7.57-.03-1.93.2-3.92.68-5.79 5.15-20.5 21.98-35.57 43.12-38.89 24.27-3.81 44.57 4.4 61.97 20.73 18.76 17.61 27.07 39.64 25.73 65.19-.96 18.33-7.02 35.25-15.95 51.12-10.86 19.3-25.37 35.63-41.53 50.66-22.55 20.98-49.2 34.06-78.82 41.41-13.74 3.41-27.82 4.48-41.95 4.72-4.05.06-8.09 0-12.21 0zm-53.2-3.89c-1.92-.37-3.27-.67-4.63-.89-13.91-2.21-27.83-4.4-41.74-6.61-17.52-2.78-35.11-4.81-52.86-5.27-16.4-.42-32.64.72-48.41 5.71-6.84 2.16-13.28 5.1-18.84 9.73-5.11 4.25-8.44 9.61-9.87 16.11-1.46 6.62-.08 12.5 4.85 17.29 7.57 7.34 16.4 12.49 26.74 14.84 13.4 3.05 26.87 2.81 40.34.54 31.91-5.38 60.87-17.9 87.36-36.33 6.08-4.23 11.6-9.1 17.06-15.12zm43.36-150.95c7.94-.22 15.85-3.36 24.18-9.55 4.56-3.39 7.48-7.88 9.08-13.21 2.58-8.57-2.36-15.87-11.27-16.73-1.65-.16-3.36-.11-5.01.12-5.29.73-10.33 2.35-15.11 4.72-7.84 3.89-13.54 9.78-16.32 18.19-2.57 7.78 1.05 13.93 9.08 15.66 1.77.37 3.58.53 5.37.8zM669.31 628.5c-5.03-10.49-2.56-20.64.37-31.24-11.23.85-20.6 4.33-28.04 12.32-3.18 3.42-5.74 7.12-6.71 11.84-1.19 5.82.59 9.87 6.03 12.17 2 .85 4.28 1.33 6.46 1.42 7.78.31 14.72-2.4 21.89-6.51z"></path><path class="st1" d="M598.87 443.34c-3.86 9.2-8.61 16.86-15.38 23.15-4.66 4.33-9.89 7.72-16.03 9.58-11.88 3.6-23.13-.38-30.05-10.68-1.09-1.62-1.99-3.35-3.18-5.37-.7.95-1.32 1.76-1.92 2.58-3.08 4.31-6.03 8.72-9.27 12.91-2.43 3.14-5.72 5.31-9.39 6.83-8.06 3.35-15.05.68-18.73-7.29-2.13-4.62-3.23-9.55-3.07-14.64.24-7.39.35-14.82 1.21-22.15a682.39 682.39 0 0 1 11.41-67.64c3.35-15.17 8.33-29.81 13.75-44.33 1.73-4.65 3.53-9.28 5.66-14.84-2.18 1.2-3.62 1.92-4.99 2.75-4.65 2.82-9.21 5.81-13.95 8.49-4.38 2.49-9.04 4.43-14.13 4.96-1.51.16-3.08.16-4.57-.1-4.97-.87-7.73-4.6-7.24-9.61.4-4.04 2.23-7.45 4.77-10.52 3.43-4.14 7.62-7.35 12.19-10.13 11.28-6.85 23.69-10.45 36.58-12.65 1.1-.19 2.2-.51 3.31-.51 2.42-.01 3.68-1.38 4.87-3.3 3.84-6.22 8.37-11.86 14.32-16.24 2.51-1.85 5.17-3.24 8.32-3.68 5.56-.77 9.9 1.37 12.35 6.48.9 1.87 1.5 3.91 2 5.93.46 1.88.61 3.84.93 6.01.55.13 1.2.43 1.83.4 16.23-.99 32.37.64 48.53 1.69 14.91.96 29.82 1.78 44.74 2.58 5.85.31 11.73.63 17.58.53 29.06-.5 57.62-4.1 85.1-14.15 8.43-3.08 16.4-7.07 23.86-12.07 4.57-3.07 8.54-6.74 11.94-11.06 2.55-3.23 4.26-6.84 5.15-10.87 1.46-6.66-.25-11.09-6.17-14.52-7.63-4.42-15.74-4.81-24.3-3.02-16.15 3.36-28.45 12.58-38.62 24.93a184.03 184.03 0 0 0-13.96 19.35c-4.36 6.99-10.44 8.49-17.95 7.71-11-1.14-19-6.61-24.59-16.03-7.58-12.8-9.56-26.37-5.74-40.72 5.86-21.98 20.19-36.75 40.51-45.67 25.32-11.12 50.45-10.02 74.24 4.39 19.07 11.56 30.61 28.62 33.57 51.02 1.09 8.26.39 16.47-1.48 24.55-2.37 10.27-6.1 20.04-11.78 28.96-7.99 12.54-16.97 24.25-28.55 33.78-10.63 8.75-22.46 15.05-35.93 18.15-.95.22-1.87.55-2.95.86-.22 3.73-.05 7.54-.74 11.19-1.65 8.62-3.3 17.28-5.71 25.71-3.01 10.52-4.55 21.27-6.23 32.02-3.64 23.3-6.74 46.7-13.11 69.49-.14.51-.12 1.07-.22 1.96 5.28.35 10.39.82 15.51 1.01 19.28.73 38.56.41 57.74-1.73 21.01-2.35 41.67-6.49 61.18-14.95 6.36-2.76 12.35-6.44 18.34-10 4.88-2.89 8.61-7.11 11.67-11.85 3.78-5.84 5.32-12.29 4.26-19.18-1.14-7.41-5.49-12.33-12.45-14.99-6.67-2.55-13.44-2-20.23-.65-19.6 3.88-35.79 13.74-49.3 28.25-5.45 5.85-10.24 12.18-14.21 19.13-1.45 2.54-3.11 4.97-4.65 7.46-1.66 2.69-4.1 3.59-7.15 3.29-8.47-.84-15.75-3.95-22.02-9.97-10.2-9.78-15.38-21.76-16.73-35.57-1.19-12.24 2.61-23.27 9.44-33.17 14.43-20.93 34.28-33.65 59.44-37.71 16.83-2.71 33.47-1.67 49.51 4.33 14.41 5.39 26.69 13.87 35.81 26.55 3.98 5.54 6.5 11.69 8.32 18.17 2.34 8.32 4.92 16.55 4.94 25.38.03 11.35-2.14 22.21-6.39 32.67-8.26 20.34-19.97 38.37-36.42 53.08-19.44 17.38-42 27.01-68.31 27.79-22.72.68-44.78-3.04-66.56-8.96-9.15-2.48-18.21-5.32-27.3-7.99l-3.76-1.09c-4.45 5.31-8.5 10.48-12.9 15.33-15.43 16.99-34.53 27.13-57.35 30.01-10.2 1.29-20.28.91-30.28-1.95-20.7-5.92-34.04-26.83-35.01-43.41-.61-10.3 2.45-19.95 9.64-27.77 11.42-12.43 25.66-18.96 42.53-19.68 13.02-.55 25.95.61 38.87 1.96 10.55 1.1 21.12 2.03 31.66 3.23 2.29.26 3.73-.32 4.88-2.2 2.18-3.57 4.76-6.94 6.6-10.67 5.68-11.55 10.43-23.54 13.01-36.16 2.46-12.01 4.03-24.2 5.81-36.34.34-2.29 0-4.74-.38-7.06-.15-.89-1.19-2.11-2.01-2.28-.82-.17-2.32.55-2.74 1.31-1.26 2.29-2.59 4.71-3.08 7.23-.88 4.64-1.47 9.38-1.67 14.1-.48 11.61-1.14 23.16-5.2 34.2-2.37 6.45-5.21 12.68-9.58 18.05-4.62 5.69-10.22 9.8-17.75 10.9-7.46 1.09-13.86-.98-19.18-6.18-5.76-5.64-8.44-12.7-8.75-20.69-.33-8.44 1.33-16.66 2.75-24.91.62-3.57 1.47-7.11 2-10.69.32-2.2.35-4.46.32-6.69-.05-4.27-1.71-7.07-4.43-7.75-2.64-.67-5.71.97-7.85 4.45-2.76 4.49-3.81 9.56-4.59 14.68-1.42 9.24-2.53 18.53-4.29 27.71-1.83 9.58-5.7 18.38-12.26 25.79-2.36 2.67-5.18 4.63-8.69 5.55-7.4 1.94-14.6-1.62-17.35-8.75-.85-2.25-1.34-4.73-2.2-7.77zm-26.35-139.3c-.38.56-.69.87-.84 1.24-5.63 13.31-13.21 25.53-21.15 37.53-7.79 11.76-15.9 23.3-23.69 35.06-6.45 9.73-11.49 20.13-13.54 31.75-.78 4.4-1.5 8.82-.49 13.3.85 3.8 4.24 5.76 7.9 4.48 1.04-.37 2.12-.8 3-1.44 5.71-4.15 9.49-9.8 11.89-16.31 1.68-4.57 2.72-9.37 4.15-14.04 2.63-8.6 6.33-16.69 11.72-23.95 3.8-5.11 8.41-9.34 13.85-12.62 12.93-7.79 27.27-4.31 35.15 8.46.27.44.63.83 1.27 1.66.37-1.82.65-3.17.9-4.52 1.12-5.94 2.89-11.65 6.01-16.87 2.02-3.4 4.47-6.45 7.96-8.45 6.11-3.5 13.19-.54 14.71 6.33.56 2.52.51 5.28.19 7.86-.86 7.11-3.29 13.8-5.69 20.52-1.92 5.37-3.66 10.83-5.04 16.36-.66 2.64-.55 5.55-.32 8.3.17 2.04.92 4.24 3.27 4.94 2.57.76 4.46-.73 5.6-2.69 1.67-2.87 3.38-5.86 4.21-9.03 1.48-5.65 2.51-11.44 3.4-17.22 1.46-9.42 3.4-18.7 7.58-27.32 1.63-3.35 3.75-6.55 6.1-9.44 2.77-3.4 6.35-5.94 10.79-6.78 9.32-1.77 15.92 1.21 18.6 9.79.89 2.84 1.2 6.08.88 9.03-.56 5.11-1.82 10.14-2.77 15.21-.96 5.08-1.79 10.19-.98 15.36 1.23 7.88 9.43 11.63 16.25 7.52 3-1.8 5.17-4.43 6.32-7.6 1.7-4.69 3.35-9.49 4.24-14.38 1.23-6.71 1.78-13.55 2.54-20.34 1.31-11.66 6.76-20.81 16.42-27.46 1.54-1.06 3.08-2.12 4.82-3.31-10-1.76-18.1 3.13-25.07 15.06-1.5-.18-3.14-.33-4.77-.59-17.53-2.84-34.58-7.69-51.72-12.2-12.67-3.33-25.34-6.71-38.14-9.53-11.56-2.55-23.31-4.36-35.51-3.67zm95.23 193.11c-.55-.48-.74-.75-.98-.82-15.98-4.48-32.1-8.27-48.75-9.13-8.11-.42-16.13.15-23.7 3.67-3.88 1.81-7.45 4-9.54 7.77-3.52 6.35-2.53 8.07 2.41 11.55 4.61 3.25 9.98 4.09 15.47 4.34 13.81.64 27.18-1.68 40.28-5.9 8.64-2.77 17-6.14 24.81-11.48zm-111.88-81.01c4.33 1.3 8.98 1.35 13.36.26 2.5-.62 4.93-1.46 7.31-2.47 6.78-2.88 12.85-6.76 16.92-13.11 4.81-7.51 1.63-13.86-7.25-14.7-.42-.04-.84-.04-1.25-.05-12.29-.16-22.51 4.58-30.84 13.41-1.67 1.77-2.94 4.1-3.82 6.39-1.69 4.41-.04 8.14 4.34 9.85.41.16.82.3 1.23.42z"></path><path class="st1" d="M528.09 221.91c3.48 8.14 5.35 16.28 4.75 24.76-.86 12.11-4.49 23.29-12.67 32.59-13.29 15.13-31.26 19.03-50.36 13.1-16.29-5.06-27.75-22.64-26.91-39.74.7-14.06 7.88-24.42 17.97-33.26 6.33-5.55 13.78-8.93 21.92-10.9 1.87-.45 3.73-.95 5.81-2.18-1.02-.4-2.01-.97-3.07-1.16-8.34-1.5-16.14.2-23.32 4.5-15.68 9.4-23.99 23.88-27.24 41.35-2.79 15.03.04 29.54 6.47 43.24 3.61 7.69 7.85 15.12 12.25 22.4 5.49 9.08 11.28 17.99 17.2 26.8 14.2 21.13 20.45 44.37 19.56 69.77-1.03 29.23-8.21 56.58-24.05 81.34-13.42 20.98-31.03 37.29-54.25 46.98-13.75 5.74-28.11 8.5-42.98 7.15-28.51-2.59-62.77-22.33-68.41-64.11-2.14-15.89.64-31.23 5.71-46.16 9.94-29.2 28.02-52.47 52.63-70.87 9.91-7.41 20.7-12.57 32.96-14.58 10.14-1.66 19.73-.47 28.65 4.95 6.13 3.73 11.85 7.91 16.12 13.8 7.32 10.11 9.46 21.58 8.7 33.76-.37 6.07-1.87 11.92-4.75 17.25-5.42 10.07-13.31 17.53-24.98 19-10.21 1.29-18.9-2.64-25.44-10.77-2.81-3.5-3.23-7.12-.86-11.23 5.53-9.61 9.51-19.88 12.48-30.56 1.3-4.68.71-9.15-1.1-13.5-3.29-7.89-10.26-9.97-17.39-5.19-5.18 3.47-8.26 8.56-10.67 14.19-2.8 6.56-3.71 13.44-3.7 20.46.02 7.71.92 15.33 3.14 22.75 3.39 11.31 9.34 20.89 19.23 27.65 14.27 9.76 29.42 10.3 45.04 3.79 6.94-2.89 12.82-7.4 17.75-13.05 7.54-8.65 13.53-18.21 15.42-29.73 1.42-8.64.53-17.22-1.52-25.75-2.58-10.72-7.64-20.14-14.87-28.26-6.86-7.71-14.28-14.93-21.56-22.26-8.76-8.81-17.87-17.29-26.41-26.32-7.75-8.19-13.72-17.69-17.18-28.5-8.83-27.61-2.66-51.76 18.26-71.56 17.82-16.87 39.48-24.19 64.06-22.66 13.79.86 27.08 3.62 39.43 10.15.99.52 2.43.72 3.52.47 21.07-4.9 42.25-9.44 62.61-16.94 17.92-6.61 34.09-16.03 47.27-30.11 5.39-5.75 9.97-12.02 13.1-19.32 1.78-4.15 2.35-4.36 6.69-3.3 7.19 1.75 12.99 5.84 17.76 11.29 11.1 12.69 15.99 27.64 15.21 44.41-.48 10.3-2.9 20.16-8.03 29.22-8.8 15.54-22.46 23.54-39.9 25.75-12.46 1.58-24.55-.55-36.38-4.01-12.85-3.75-25.44-8.39-38.26-12.24-6.65-2-13.56-3.19-20.38-4.61-1.45-.3-3.03-.04-5.03-.04zm-65.14 37.5.09-.32c.28-.02.56-.03.84-.05 13.58-.93 26.29-4.85 38.1-11.53 5.11-2.9 9.74-6.55 13.1-11.51 1.89-2.79 3.43-5.77 3.57-9.24.15-3.85-.69-4.66-4.6-4.21-21.66 2.52-40.73 11.08-57.59 24.77-1.07.87-2.12 1.87-2.87 3.02-1.91 2.94-1.37 5.47 1.8 6.93 2.35 1.08 5.03 1.45 7.56 2.14z"></path><path class="st0" d="M256.85 789.4c.39-29.45 12.33-53.41 34.66-72.33 10.84-9.18 22.74-16.64 36.29-21.24 11.78-4 23.75-4.89 35.89-2.05 14.69 3.43 26.06 15.41 28.13 29.87 1.69 11.75-3.33 31.57-20.31 40.11-5.92 2.98-11.87 4.78-18.5 3.73-1.37-.22-2.76-.48-4.06-.95-4.29-1.54-5.9-4.3-5.07-8.79 1.1-5.89 2.55-11.72 3.39-17.64.8-5.65 1.21-11.38 1.41-17.08.15-4.16-1.31-7.97-4.25-11.06-3.74-3.93-8.82-4.83-13.27-1.75-2.69 1.86-5.15 4.35-7.01 7.05-6 8.66-7.47 18.37-6.25 28.76 2.8 23.79 23.74 40.51 49.8 38.91 7.6-.47 14.78-2.31 21.59-5.98 14.6-7.84 22.25-20.22 24.67-36.25 1.09-7.23 1.41-14.42-.74-21.56-1.43-4.74-3.6-9.05-6.45-13.07-5.79-8.16-12.75-15.2-20.65-21.27-6.97-5.36-14.11-10.51-21.28-15.6-8.78-6.24-17.25-12.84-24.79-20.57-8.45-8.67-13.54-19.06-15.7-30.89-2.67-14.61 1.37-27.63 9.77-39.53 4.67-6.61 10.57-11.96 17.57-15.92 20.54-11.6 42.42-15.3 65.42-9.56 10.61 2.65 20.48 7.33 28.65 14.97 13.57 12.71 18.11 31.07 11.69 47.42-7.85 19.98-32.22 31.48-52.47 24.76-8.21-2.72-14.44-7.86-18.32-15.59-4.11-8.19-6.11-16.76-3.64-25.92.07-.27.11-.55.19-.82 1.93-6.56 5.63-7.53 10.48-2.77 6.42 6.32 13.8 7.29 21.23 2.24 3.05-2.08 5.88-4.82 8-7.84 6.03-8.54 1.91-23.48-8.66-26.82-11-3.47-20.56-.92-28.66 6.62-12.06 11.23-17.77 25.6-18.09 41.9-.22 11.23 2.55 21.95 9.12 31.27 3.53 5 7.32 9.95 11.71 14.18 10.78 10.38 20.99 21.25 30.76 32.58 12.02 13.93 21.63 29.16 25.81 47.31 5.27 22.88 2.66 45.07-7.45 66.11-16.43 34.19-42.99 56.53-79.97 65.78-16.02 4.01-32.18 3.74-47.92-1.54-26.52-8.88-42.71-27.45-49.7-54.3-2.09-8.15-3.04-16.46-3.02-24.88z"></path><path class="st0" d="M475.63 571.51c-4.41.93-8.32 2.01-12.29 2.51-2.57.33-5.35.23-7.86-.4-7.19-1.82-9.91-8.99-5.68-15.07 1.47-2.11 3.57-4.04 5.81-5.27 4.26-2.35 8.77-4.26 13.27-6.12 3.74-1.54 7.56-2.91 11.43-4.04 2.66-.78 4.1-2.16 5.04-4.84 4.01-11.51 9.34-22.4 16.1-32.57 4.28-6.45 9.19-12.38 15.61-16.76 3.41-2.33 7.16-4.46 11.08-5.68 9.52-2.97 18.14 3.25 18.98 13.17.42 4.96-.28 9.76-1.93 14.42-1.54 4.33-3.25 8.6-5.04 13.29 2.43-.34 4.67-.7 6.92-.96 8.84-1.01 17.28.13 24.98 4.88 4.69 2.89 8.11 6.81 9.18 12.41 1.3 6.8-2.53 12.09-9.4 12.47-3.45.19-6.98-.11-10.41-.63-9.41-1.43-18.8-2.67-28.32-1.23-.14.02-.28.04-.42.05-5.28.46-9 2.55-11.89 7.58-13.13 22.84-24.52 46.43-31.63 71.84-4.66 16.67-5.25 33.84-4.21 51.08.64 10.57 2.88 20.71 7.07 30.41 7.76 17.95 21.17 29.16 40.34 33.11 9.83 2.03 19.47.64 28.71-3.22 8.04-3.35 15.41-7.85 21.98-13.61 1.26-1.1 2.51-2.24 3.91-3.15 2.56-1.67 3.87-1.34 5.56 1.21 2.07 3.12 2.83 6.69 3.19 10.3 3.47 35.06-21.76 69.64-54.26 77.4-32.58 7.78-72.1-9.85-83.2-45.83-4.83-15.65-7.05-31.56-6.53-47.86.85-26.3 4.73-52.26 10.5-77.86 3.87-17.17 6.52-34.51 9.58-51.8 1.12-6.29 2.49-12.54 3.83-19.23z"></path><path class="st2" d="M476 825.53c5.77.71 12.14 1.42 18.48 2.29 18.69 2.57 37.42 4.47 56.32 3.2 15.56-1.05 29.84-5.58 41.96-15.81 5.72-4.82 8.89-5.3 13.55 2.53 2.85 4.78 5.95 9.54 7.94 14.69 6.77 17.53 5.72 34.44-5.41 50.11-7.19 10.13-17.14 15.81-29.37 17.37-16.14 2.07-31.61-1.11-46.85-6.25-12.51-4.22-23.78-10.96-35.45-16.9-6.34-3.22-12.64-6.44-19.64-8.17-13.74-3.41-26.83-1.82-39.45 4.43-3.67 1.82-3.99 1.76-6.44-1.57-4.14-5.63-4.05-12.04-3.07-18.47.91-6.03 4.13-10.88 8.6-14.95 6.72-6.12 14.8-9.4 23.6-10.92 4.81-.81 9.71-1.02 15.23-1.58z"></path><path class="st3" d="M943.34 648.77c-7.87-.06-14.15-1.97-19.25-6.88-6.59-6.34-7.85-15.4-3.37-23.38 7.87-13.99 29.24-18.05 41.64-7.92 8.32 6.8 9.87 17.78 3.52 26.58-5.72 7.95-13.87 11.29-22.54 11.6z"></path><path class="st0" d="M381.72 317.77c3.75 3.63 8.16 9.07 5.11 13.3-2.41 3.35-7.49 2.67-11.48 1.64-15.52-4.02-31.27-8.13-45.06-16.3-13.79-8.18-25.59-21.11-28.61-36.85-3.02-15.74 3.74-32.94 16.67-42.41 7.96-5.84 24.05-11.71 33.87-7.22 9.16 4.18 4.21 15.48 3.96 23.68-.7 23.63 8.49 47.65 25.54 64.16z"></path><path class="st1" d="M278.27 507.59c-3.43-11.18-5.75-24.47-15.99-30.12-7.29-4.02-16.93-2.42-23.34 2.9s-9.71 13.79-9.88 22.12 2.54 16.51 6.5 23.84c7.84 14.49 20.8 26.14 36.04 32.4 9.76 4.01 20.42 5.79 30.96 5.29 2.78-.13 14.12-.15 15.67-2.62 1.76-2.81-5.81-6.13-7.79-7.65-15.12-11.6-26.59-27.93-32.17-46.16z"></path><path class="st4" d="M309.25 643.47c2.35 8.84 6.09 18.06.38 26.77-3.7 5.64-10.23 8.82-16.97 8.78-14.78-.09-24.87-13.15-26.98-26.68-1.73-11.1 1.11-22.44 5.24-32.89 4.32-10.94 10.19-21.42 18.46-29.78 5.45-5.5 15.9-14.01 24.62-14.73 1.91-.16 3.35 1.69 2.83 3.53-1.06 3.79-3.82 7.84-5.05 11.21a91.615 91.615 0 0 0-4.47 17.64c-1.78 12.02-1.18 24.4 1.94 36.15z"></path><path class="st2" d="M906.76 341.69c8.93 7.55 18.08 17.47 29.74 16.68 8.31-.56 15.55-7.12 18.06-15.07 2.51-7.94.71-16.85-3.66-23.95-4.36-7.09-11.07-12.51-18.37-16.53-14.43-7.94-31.64-10.73-47.84-7.75-10.38 1.91-20.31 6.18-28.9 12.31-2.27 1.61-11.79 7.77-11.76 10.68.04 3.32 8.21 2.01 10.69 2.22 19 1.57 37.48 9.1 52.04 21.41z"></path><path class="st5" d="M306.55 393.83c-5.09 10.53-9.4 23.31-20.38 27.34-7.82 2.87-17.1-.18-22.63-6.41-5.52-6.23-7.5-15.11-6.41-23.36 1.1-8.26 5.02-15.93 10.05-22.57 9.95-13.13 24.53-22.67 40.55-26.54 10.26-2.48 21.07-2.62 31.41-.52 2.73.55 13.94 2.3 15.09 4.97 1.32 3.04-6.68 5.17-8.86 6.37-16.7 9.16-30.53 23.55-38.82 40.72z"></path><path class="st0" d="M844.94 254.61c-.94-5.13-2.49-10.48-.86-15.44 2.55-7.74 12.72-11.19 20.22-8 7.5 3.19 12.02 11.38 12.64 19.51.62 8.13-2.08 16.17-5.66 23.49-3.75 7.66-8.59 14.91-15.04 20.48-4.79 4.13-14.4 10.67-20.96 8.98-.04-3.37 3.35-7.16 4.76-10.26 1.83-4.01 3.24-8.21 4.23-12.5 1.98-8.6 2.26-17.59.67-26.26z"></path><path class="st4" d="M999.27 485.03c4.8 1.77 9.47 4 14.49 5 5.02.99 10.61.57 14.65-2.56 5.51-4.27 6.61-12.07 6.71-19.04.15-9.67-1.15-20.22-7.96-27.1-8.41-8.5-22.21-8.39-33.79-5.42-21.91 5.62-44 20.67-55.24 40.68-10.05 17.9 7.91 6.72 18.75 4.81 14.13-2.5 28.93-1.34 42.39 3.63z"></path><path class="st5" d="M973.28 416.69c4.86-4.97 9.56-10.78 10.26-17.7.81-7.94-4.33-15.92-11.64-19.13-7.31-3.21-16.23-1.84-22.71 2.82s-10.55 12.28-11.6 20.19c-.75 5.67-.07 11.43-.22 17.15-.15 5.72-1.29 11.73-5.05 16.04-1.23 1.41-2.72 2.61-3.7 4.21-.98 1.59-1.32 3.79-.17 5.27 2.84 3.63 19.08-8.17 22.14-10.17 8.2-5.39 15.82-11.66 22.69-18.68z"></path><path class="st6" d="m893.89 824.65 3.55-21.5a6.605 6.605 0 0 1 5.44-5.44l21.5-3.55c1.41-.23 1.41-2.25 0-2.49l-21.5-3.55a6.605 6.605 0 0 1-5.44-5.44l-3.55-21.5c-.23-1.41-2.25-1.41-2.49 0l-3.55 21.5a6.605 6.605 0 0 1-5.44 5.44l-21.5 3.55c-1.41.23-1.41 2.25 0 2.49l21.5 3.55c2.79.46 4.98 2.65 5.44 5.44l3.55 21.5c.23 1.41 2.26 1.41 2.49 0z"></path><path class="st7" d="m844.68 868.28 1.82-11.02a3.4 3.4 0 0 1 2.79-2.79l11.02-1.82c.72-.12.72-1.15 0-1.27l-11.02-1.82a3.4 3.4 0 0 1-2.79-2.79l-1.82-11.02c-.12-.72-1.15-.72-1.27 0l-1.82 11.02a3.4 3.4 0 0 1-2.79 2.79l-11.02 1.82c-.72.12-.72 1.15 0 1.27l11.02 1.82a3.4 3.4 0 0 1 2.79 2.79l1.82 11.02c.11.72 1.15.72 1.27 0z"></path><path class="st8" d="m930.85 891.37 4.53-27.47a8.431 8.431 0 0 1 6.95-6.95l27.47-4.53c1.8-.3 1.8-2.88 0-3.17l-27.47-4.53a8.431 8.431 0 0 1-6.95-6.95l-4.53-27.47c-.3-1.79-2.88-1.79-3.17 0l-4.53 27.47a8.431 8.431 0 0 1-6.95 6.95l-27.47 4.53c-1.8.3-1.8 2.88 0 3.17l27.47 4.53c3.57.59 6.36 3.38 6.95 6.95l4.53 27.47c.29 1.8 2.87 1.8 3.17 0z" style="fill:#bb3e04;fill:var(--c9, var(--c7, var(--c5, var(--c4, var(--c1)))))"></path><path class="st3" d="m329.2 176.93 2.94-17.83a5.48 5.48 0 0 1 4.51-4.51l17.83-2.94c1.17-.19 1.17-1.87 0-2.06l-17.83-2.94a5.48 5.48 0 0 1-4.51-4.51l-2.94-17.83c-.19-1.17-1.87-1.17-2.06 0l-2.94 17.83a5.48 5.48 0 0 1-4.51 4.51l-17.83 2.94c-1.17.19-1.17 1.87 0 2.06l17.83 2.94a5.48 5.48 0 0 1 4.51 4.51l2.94 17.83c.19 1.17 1.87 1.17 2.06 0z"></path><path class="st6" d="m388.49 183.69 1.82-11.02a3.4 3.4 0 0 1 2.79-2.79l11.02-1.82c.72-.12.72-1.15 0-1.27l-11.02-1.82a3.4 3.4 0 0 1-2.79-2.79l-1.82-11.02c-.12-.72-1.15-.72-1.27 0l-1.82 11.02a3.4 3.4 0 0 1-2.79 2.79l-11.02 1.82c-.72.12-.72 1.15 0 1.27l11.02 1.82a3.4 3.4 0 0 1 2.79 2.79l1.82 11.02c.12.72 1.15.72 1.27 0z"></path><path class="st7" d="m282.3 239.96 3.21-19.49a5.99 5.99 0 0 1 4.93-4.93l19.49-3.21c1.27-.21 1.27-2.04 0-2.25l-19.49-3.21a5.99 5.99 0 0 1-4.93-4.93l-3.21-19.49c-.21-1.27-2.04-1.27-2.25 0l-3.21 19.49a5.99 5.99 0 0 1-4.93 4.93l-19.49 3.21c-1.27.21-1.27 2.04 0 2.25l19.49 3.21a5.99 5.99 0 0 1 4.93 4.93l3.21 19.49c.21 1.28 2.04 1.28 2.25 0z"></path></svg>