<svg xmlns="http://www.w3.org/2000/svg" viewBox="0 0 466.9345 643.8231">  <defs>    <style>      .cls-1 {        isolation: isolate;      }      .cls-2 {        fill: #fff3ef;      }      .cls-3 {        fill: #ffc2e6;      }      .cls-4 {        fill: #ff7b1a;      }      .cls-5 {        fill: #ffa600;      }      .cls-6, .cls-7 {        fill: #ffdbce;      }      .cls-7 {        mix-blend-mode: multiply;      }    </style>  </defs>  <g class="cls-1">    <g id="Layer_1" data-name="Layer 1">
  <path class="cls-2" d="M0 0h466.9345v643.8231H0Z" />
  <path class="cls-3" d="M173.97326,350.0746a1.19881,1.19881,0,0,1,.7076-2.1017,1.25724,1.25724,0,0,1,.8599.2888,1.19777,1.19777,0,0,1-.7059,2.1017A1.26406,1.26406,0,0,1,173.97326,350.0746Z" />
  <path class="cls-3" d="M291.90025,146.6111c1.7408-.1252,4.0511.6947,3.8714,2.7884-.2728,2.6825-7.7219,5.8705-9.7755,7.9209-7.5759,5.5479-13.249,13.119-18.0574,21.0944a103.43391,103.43391,0,0,1-7.6786,11.996c-12.0329,15.9316-23.91179,11.7425-37.66779,20.0532-6.3597,5.1164-10.3306,12.6185-16.9471,17.4734-9.1177,7.8519-21.5276,9.2653-33.0937,10.0274-7.624.4685-15.2785-.4043-22.8865.4316a27.82711,27.82711,0,0,0-19.5543,11.4778c-2.7579,3.4462-4.9656,7.2807-7.5133,10.8745a51.24,51.24,0,0,1-21.1731,16.7787c-7.754,3.3162-16.4754,5.1677-23.0133,10.7638a39.97363,39.97363,0,0,0-5.7068,7.4877c-.0369.0625-.0754.1267-.1123.1925.677,3.0243,1.4182,6.0309,2.1515,9.0118a281.55786,281.55786,0,0,0,16.469,46.5978c6.8266,14.624,15.1309,28.441,22.97,42.513,5.3362,10.2457,13.0148,18.8805,20.6837,27.4142,3.4799,3.7366,5.564,8.6139.1877,11.9896-2.3825,1.8386-5.3105,4.4056-8.5144,3.4638-5.3186-3.1221-8.3541-9.068-12.1148-13.7929q-3.47025-5.02725-6.9085-10.0819a2.63835,2.63835,0,0,1-1.2883,1.2209c-4.2548,1.4536-8.3492,2.9296-11.9976,5.5897-8.6508,5.9827-19.0569,10.6804-29.7966,9.153-9.1948-1.3445-16.9792-6.6486-22.7839-13.6902l-.0048-.0032q-1.136-1.0638-2.19-2.1964c-4.5517-5.2223-8.277-14.8005-9.4916-21.6111-.7027-5.4357.0722-10.9499.8985-16.3294.5808-3.6725,1.2001-7.3449,1.9975-10.9773q.17565-.74115.3561-1.4824v-.0016c.0257-1.0316.0129-2.06-.0433-3.0933a32.02236,32.02236,0,0,0-.4235-3.1783c-.2279-1.0203-.5086-2.0199-.8295-3.0146-1.2338-3.512-2.904-6.8491-4.4634-10.2231a65.46279,65.46279,0,0,1-4.0174-10.6307,32.94422,32.94422,0,0,1-.9546-5.5881,34.43654,34.43654,0,0,1-.0433-5.5929,66.66838,66.66838,0,0,1,1.8867-10.9611c1.7632-7.1235,4.088-14.0946,5.7694-21.2405q.5295-2.243.9787-4.5035a106.67534,106.67534,0,0,0,1.5418-11.935c.1652-2.896.2118-5.7919.1845-8.6942-.0289-3.0901-.1187-6.1737-.308-9.1177-.268-3.8361-.6258-7.6674-.6947-11.5131-.0081-.4364-.0081-.8712-.0033-1.306.0033-.2406.0177-.4845.0337-.7252a3.85629,3.85629,0,0,1,.3771-1.6188,2.3545,2.3545,0,0,1,.8728-.9225,2.0406,2.0406,0,0,1,1.2353-.2375,3.22125,3.22125,0,0,1,2.1162,1.5162,17.702,17.702,0,0,1,1.3429,2.5413c.377.7958.7348,1.5996,1.0669,2.4146a39.21832,39.21832,0,0,1,1.6638,5.3186,48.7295,48.7295,0,0,1,.9947,5.5175,43.08947,43.08947,0,0,1,.3529,5.6618c-.0096,1.9109-.1171,3.8169-.2583,5.7229-.1444,1.9589-.3289,3.9131-.4604,5.8704a56.89448,56.89448,0,0,0-.0321,6.5138c.0818.9129.1909,1.8178.3433,2.7211.2006.9626.4493,1.906.7445,2.8445a35.96215,35.96215,0,0,0,1.5851,3.7928c.8166,1.6028,1.7199,3.1558,2.5413,4.7554a40.77683,40.77683,0,0,1,2.2333,5.0651,32.50942,32.50942,0,0,1,1.4488,5.7725,35.2805,35.2805,0,0,1,.3305,5.7165c-.0208,2.3745-.2406,4.7409-.3546,7.1122a68.33464,68.33464,0,0,0-.032,7.1379c.0818.9113.2037,1.8098.3706,2.7098.1845.8857.3995,1.7552.6658,2.62a35.419,35.419,0,0,0,1.3637,3.3612c.2503.507.5038,1.0107.7862,1.5017.3192.5583.6594,1.0974,1.0123,1.6333,2.105,2.9504,4.6158,5.5848,6.8812,8.4101a42.81241,42.81241,0,0,1,3.3051,4.6881c.4717.7845.884,1.6092,1.2979,2.4258q.6474,1.27065,1.2258,2.5702a38.97282,38.97282,0,0,1,2.7756,10.4462c.2663,1.8723.3882,3.7623.5069,5.649.1156,1.8258.1188,3.6612.1059,5.4902-.0192,2.4178-.1059,4.8308-.008,7.247.0947,1.2803.2583,2.5462.4653,3.8153.1636.7781.3513,1.5434.5744,2.3071.2374.6738.5005,1.33.7941,1.983.337.6353.6915,1.2498,1.0782,1.8547.576.8086,1.1856,1.5803,1.8354,2.3327.7348.7846,1.4985,1.5306,2.2991,2.2478,1.0525.8856,2.1354,1.7167,3.2681,2.4996.8953.5728,1.8066,1.1022,2.7564,1.5884a28.52828,28.52828,0,0,0,2.7049,1.0829c1.0621.3209,2.1243.6161,3.2072.8552,1.2466.2262,2.4948.3818,3.7591.4829a79.55725,79.55725,0,0,0,8.7262-.0883c-3.1269-4.7714-6.1768-9.5942-9.0984-14.4956-20.9998-34.6258-39.3412-72.9306-40.798-114.0718-.1379-23.4706,7.6417-46.7037,18.5804-67.2591,15.2433-27.0275,35.9591-50.4932,51.9372-77.0699,4.0816-6.2459,6.6743-13.2249,9.575-20.066.0674-.1926.1396-.3819.2182-.568a1.13732,1.13732,0,0,1-.0209-.1652,1.33155,1.33155,0,0,1,.7782-1.2563c2.7739-4.2741,8.7936-5.9571,11.2644.1444,6.1945,19.4933-15.7696,42.9093-25.659,58.5794C107.35736,184.9447,96,201.6832,86.69446,219.5818c-7.8326,14.5116-14.1122,29.9282-16.2829,46.3731a59.32056,59.32056,0,0,0-.4717,13.3534c.8471-2.4852,1.6509-4.9833,2.5045-7.4669,6.3213-17.9707,15.7727-35.3622,29.6314-48.6289,12.8816-13.9822,32.7599-14.7668,49.5242-21.2052a63.53463,63.53463,0,0,0,20.7431-13.841c5.0891-5.0827,10.175-10.4622,16.9278-13.302a56.47535,56.47535,0,0,1,20.5651-4.5596c6.9534-.2118,14.0095.5326,20.8249-1.2418,10.0274-2.5061,18.48569-8.6092,27.53609-13.302A81.24281,81.24281,0,0,1,291.90025,146.6111Z" />
  <path class="cls-3" d="M75.83126,281.6519a2.166,2.166,0,0,1,.3481-3.0147c3.6148-3.0592,7.158-6.2083,10.6804-9.3728a80.165,80.165,0,0,0,8.7438-9.867c5.0045-6.4847,9.4634-13.454,15.3558-19.1979,11.2068-11.2589,26.2238-16.3893,41.6481-18.6031a37.27176,37.27176,0,0,0,19.8998-9.215c5.8456-5.5036,10.67-12.2014,17.6108-16.452,6.9925-4.5673,15.6854-4.6019,23.7448-5.1421,11.4911-.5326,22.1034.1589,31.3507-8.0606,5.09409-4.5621,8.784-10.2402,13.6219-14.9879a48.633,48.633,0,0,1,6.91649-5.6378c.6707-.4251,1.6333-1.115,2.36651-.4267a.99564.99564,0,0,1,.01919,1.3877c-13.3038,9.7639-16.8149,24.7897-34.07549,29.6075-9.0003,2.4678-18.4377,1.694-27.6419,2.6088-5.6055.451-11.1007,1.5609-15.7174,4.9379-8.2802,5.6481-13.4888,14.839-22.2602,19.8688-7.8376,5.0579-15.5342,5.0054-24.2398,6.9529a62.88468,62.88468,0,0,0-22.5417,9.2513,59.46735,59.46735,0,0,0-11.2158,10.101c-7.7612,9.2145-13.523,20.1735-22.8428,28.0163-2.9055,2.5445-5.8063,5.0971-8.7567,7.5919A2.16243,2.16243,0,0,1,75.83126,281.6519Z" />
  <path class="cls-3" d="M37.29446,307.2365c-.5743-3.6615-.726-7.2203-2.113-10.6531a1.02287,1.02287,0,0,1,1.5306-1.075,1.012,1.012,0,0,1,.4171.5183c.2552.7347.5891,1.4405.8087,2.1899a64.627,64.627,0,0,1,1.6509,8.8321A1.15115,1.15115,0,0,1,37.29446,307.2365Z" />
  <path class="cls-3" d="M66.42336,414.6837c-10.4412-1.824-17.6461-11.5063-18.855-21.6798-1.3914-9.7234.4658-19.4931,1.2574-29.187,1.6598-9.2307-3.0657-16.243-7.224-23.976a42.4544,42.4544,0,0,1-3.934-10.9836A76.49458,76.49458,0,0,1,36.41,314.9264a1.55643,1.55643,0,0,1,1.4022-1.6509,1.54049,1.54049,0,0,1,1.653,1.4005c-.3184,25.3702,12.7523,28.4942,13.0704,44.9759-.2066,6.2081-.9947,12.3753-1.4483,18.5659-1.4647,13.4794,1.4683,30.6696,17.587,32.6653,6.7681.6497,13.5437-1.6441,20.2598-1.7221,2.6517-.0199,4.8758-.1124,7.4622-.1919a2.09173,2.09173,0,0,1,1.4391.4509,2.02028,2.02028,0,0,1-1.1118,3.544c-2.1964.0787-4.3928.1717-6.5812.3836C82.15006,413.9664,74.38426,416.2552,66.42336,414.6837Z" />
  <path class="cls-3" d="M82.17356,201.1783a1.19664,1.19664,0,0,1-.4396-1.6237c1.3043-2.0359,2.6408-4.051,3.9498-6.0839,3.8508-5.852,7.5811-11.8359,11.8905-17.3604a1.03015,1.03015,0,0,1,1.6924,1.0968,6.11888,6.11888,0,0,1-.422.6161c-2.6774,4.2258-5.3035,8.4871-8.1294,12.6169-1.5415,2.2941-3.1315,4.5538-4.6649,6.8517q-1.13835,1.7163-2.2532,3.4453A1.209,1.209,0,0,1,82.17356,201.1783Z" />
  <path class="cls-3" d="M84.06406,210.4535a1.37686,1.37686,0,0,1-.5037-1.8562c3.8718-7.4747,8.1966-14.7037,12.5542-21.9032.4853-.8192.975-1.64,1.4103-2.4866a1.067,1.067,0,0,1,1.5242-.6419c1.3703.787-.5452,3.1327-.9642,4.1458-3.0616,5.371-6.0943,10.7583-8.9606,16.2363-1.0733,1.9975-2.1514,3.9933-3.2039,6.002A1.36812,1.36812,0,0,1,84.06406,210.4535Z" />
  <path class="cls-4" d="M280.737,45.9648c3.0403,3.9997,4.6639,9.4947,2.4932,14.263a24.35052,24.35052,0,0,1-9.8798,10.536c-5.2094,3.0371-11.0655,4.7345-16.9134,6.0565-8.5033,1.9173-17.236,2.5606-25.73919,4.4747-2.4659.7251-6.6726,1.4792-7.9834,3.9291.0834,1.2915,1.7776,1.6621,2.729,2.2108,4.4811,1.8338,9.2429,2.8382,13.8282,4.3688,2.6088.8407,5.1758,1.829,7.7059,2.8798,7.51009,3.2794,14.916,7.3385,20.79119,13.1255,3.9757,4.3094,7.738,9.9504,9.1723,15.6637,1.537,6.6405-.7589,13.7608-4.98,18.967-3.7206,4.4907-9.2701,7.0096-14.9112,8.0877-8.3027,1.6204-16.91819.0016-24.68339-3.1205-10.3435-4.1458-19.3794-10.9804-27.3211-18.7072-3.8827-3.7783-7.584-7.7379-11.4217-11.5628-2.6247-2.4964-6.4207-6.2298-10.3418-5.5704a2.32113,2.32113,0,0,0-.4477.2006c-5.1709,4.7409-2.5702,21.1442-2.5349,27.9259.1123,2.6922.1909,5.3827.2102,8.0749.0032,10.9066-1.5643,22.601-8.2899,31.539-5.1115,6.724-13.2249,11.2804-21.7843,11.0045-8.7439-.1557-16.3263-7.0353-19.1339-15.0444-1.6943-5.0682-2.036-10.4686-2.1291-15.7775a96.41594,96.41594,0,0,1,2.7756-23.0406c.8504-3.7382,1.9526-7.4106,2.9216-11.1184a25.67236,25.67236,0,0,0,1.0316-8.6604c-.1829-2.4467-1.914-5.917-4.8596-4.8244-2.8928,1.5322-5.2368,4.1666-7.6979,6.3052-11.7682,11.258-23.0101,23.047-34.5857,34.4991-8.1247,7.677-19.4131,18.4729-31.1717,18.4119-5.5768.0129-11.282-3.4927-12.6072-9.1145-1.0268-4.1698.6193-8.4471,2.567-12.0938,2.6906-4.8196,6.7833-8.6252,10.8216-12.3089a146.549,146.549,0,0,1,12.949-10.1942c2.0889-1.5034,4.2853-3.058,6.3501-4.5437,6.3566-4.7072,13.0261-8.7583,18.0895-14.6753,1.5659-2.0761,3.1622-4.266,3.6195-6.886.3369-1.8322-.154-4.0944-2.0247-4.8902-2.819-1.0958-5.9234-.0497-8.7648.4878-10.5681,2.7804-20.6501,7.1202-31.1058,10.2776-7.8214,2.3152-16.7514,5.1469-24.5311,1.3156a19.33708,19.33708,0,0,1-7.6802-6.0581,14.52939,14.52939,0,0,1-2.3633-12.5688c4.0463-13.5057,31.3369-17.7974,43.6249-19.3216,3.9035-.4877,7.8085-.9658,11.7072-1.4808,1.967-.5568,3.9436-1.0734,5.9202-1.5884,10.9916-2.8333,22.0523-5.7212,33.0295-8.1727a217.696,217.696,0,0,1,22.9539-3.281c5.5576-.5696,11.0639-1.4568,16.5749-2.3552,10.6676-1.7472,21.3961-3.1478,31.9626-5.4566,18.6366-4.0735,37.0966-9.2188,55.9979-11.9494,9.4547-1.0381,19.76119-1.2883,28.34629,3.3708A20.37185,20.37185,0,0,1,280.737,45.9648Z" />
  <path class="cls-5" d="M196.51146,58.0056c8.2209,16.7097-6.2459,21.3977-19.7708,24.1172a224.60042,224.60042,0,0,1-25.0204,3.3836c-8.7151.7846-17.5408,1.3541-26.2237-.0321-14.1956-1.7905-30.9502-10.3081-22.4422-26.9681a46.28175,46.28175,0,0,1,27.8409-25.9846c18.7441-7.178,41.7205-5.3458,56.8146,8.7294A28.586,28.586,0,0,1,196.51146,58.0056Z" />
  <path class="cls-3" d="M146.93466,31.486a39.18489,39.18489,0,0,1-1.8063-11.6655c-.0565-1.0038.4499-2.2503,1.6526-1.6831.8236.6493.8068,1.8749,1.147,2.8013.8253,3.2195,2.024,6.3562,2.4451,9.668A1.7944,1.7944,0,0,1,146.93466,31.486Z" />
  <path class="cls-3" d="M165.41286,33.4345a1.798,1.798,0,0,1-1.2031-2.2076,37.13534,37.13534,0,0,1,1.8709-6.0701c.5019-1.3533.9573-2.7264,1.4917-4.068a2.54677,2.54677,0,0,1,.783-1.2033,1.18513,1.18513,0,0,1,1.5211.1235c1.0624,1.2385-.106,4.4683-.3564,5.9956a30.26181,30.26181,0,0,1-1.6437,5.4921C167.59946,32.6924,166.76056,33.8268,165.41286,33.4345Z" />
  <path class="cls-3" d="M182.39456,39.614c-2.5271-1.9659,2.9628-6.4107,4.1813-8.2081,1.321-1.1248,4.4939-6.8939,5.9639-3.4298-1.0296,3.1887-3.5035,5.9417-5.3462,8.7566C185.94636,38.0566,184.569,41.1638,182.39456,39.614Z" />
  <path class="cls-3" d="M190.99506,49.8168c-1.4331-3.3115,3.7411-4.239,5.6916-5.5005,2.0219-.614,6.4349-4.38,8.1756-2.7104,1.3858,2.3383-6.0649,5.6819-7.6324,7.1297C195.467,49.8073,192.62646,52.3564,190.99506,49.8168Z" />
  <path class="cls-3" d="M193.89286,61.5109c-.8816-2.5001,2.2788-3.0653,3.9884-3.6904,2.8078-.6935,5.5502-2.0589,8.4297-2.2974,3.5018,1.9353-2.7912,3.9324-4.2566,4.7303C199.76616,60.9026,195.54,64.599,193.89286,61.5109Z" />
  <path class="cls-3" d="M133.08016,36.6547c-2.9163-1.9911-5.1638-8.3905-6.7718-11.6835-.4626-1.2585-1.311-2.9802-.186-4.1152a1.64726,1.64726,0,0,1,2.1325-.0997c1.9645,2.7414,3.3239,5.9748,5.1113,8.8644.751,1.3351,1.2986,2.7686,2.0487,4.104A2.03859,2.03859,0,0,1,133.08016,36.6547Z" />
  <path class="cls-3" d="M118.24456,44.1204a46.17993,46.17993,0,0,1-5.7165-5.4981,36.85346,36.85346,0,0,1-2.5077-3.0965,6.622,6.622,0,0,1-1.3877-2.6986,1.06265,1.06265,0,0,1,.6305-.9723c.6097-.2903,1.2274.2263,1.6734.5776a126.38085,126.38085,0,0,1,9.745,9.0118A1.8159,1.8159,0,0,1,118.24456,44.1204Z" />
  <path class="cls-3" d="M107.99026,59.8563a87.32569,87.32569,0,0,1-8.4377-4.1086c-1.475-1.1164-8.4358-3.5783-6.1573-5.9032,3.4796-1.0449,13.5392,3.7821,16.8314,5.7328C112.77646,57.0436,110.63906,61.0999,107.99026,59.8563Z" />
  <path class="cls-3" d="M133.92906,52.29c-1.1399-1.6959-4.9387-7.8107-3.2483-9.5025a1.32822,1.32822,0,0,1,2.1637.6935,49.56972,49.56972,0,0,1,4.6609,6.3653A2.1662,2.1662,0,0,1,133.92906,52.29Z" />
  <path class="cls-3" d="M149.46556,52.9775c-3.562-.5457-1.6739-5.1541-1.731-7.5873.1959-1.4835.559-2.9396.8054-4.4152a1.96749,1.96749,0,0,1,2.0522-2.113c2.9027.0557,1.706,6.0943,1.7455,8.1134C151.84826,49.0741,152.58356,52.9982,149.46556,52.9775Z" />
  <path class="cls-3" d="M163.88556,54.1561a1.98314,1.98314,0,0,1-.892-2.6248c.871-1.7789,1.5831-3.6328,2.4833-5.3957,1.0263-1.2523,2.5926-6.4758,4.5475-5.2318,1.9053,1.9518-1.1251,7.1926-2.0444,9.3456C167.02526,51.8393,166.41346,55.2361,163.88556,54.1561Z" />
  <path class="cls-3" d="M181.01726,63.1122a1.96823,1.96823,0,0,1-1.221-2.4756c.4188-1.1504.7798-2.336,1.3059-3.4431.5974-1.0653,1.0071-2.3947,2.0024-3.159a1.19629,1.19629,0,0,1,1.7135.438,3.379,3.379,0,0,1,.2021,1.9093,20.94314,20.94314,0,0,1-1.5274,5.5094A1.982,1.982,0,0,1,181.01726,63.1122Z" />
  <path class="cls-3" d="M159.22356,68.0295a16.1324,16.1324,0,0,1-.7604-4.6511c-.226-1.0572.3828-2.5701,1.672-1.9928,1.4695,1.2209,3.5306,4.9592,2.8378,6.862A2.054,2.054,0,0,1,159.22356,68.0295Z" />
  <path class="cls-3" d="M140.68716,71.4555a41.60815,41.60815,0,0,1-3.7584-8.1141,1.421,1.421,0,0,1,.7067-2.0993,1.44294,1.44294,0,0,1,1.8822,1.163,33.82388,33.82388,0,0,1,4.5753,7.3176A1.91138,1.91138,0,0,1,140.68716,71.4555Z" />
  <path class="cls-3" d="M122.98506,69.9812c-2.3958-2.1627-5.2694-4.308-6.4463-7.4074a1.51734,1.51734,0,0,1,2.5381-1.168,42.03166,42.03166,0,0,1,6.6195,5.458C127.73776,68.5961,124.97466,71.7667,122.98506,69.9812Z" />
  <path class="cls-3" d="M110.13176,75.0177a25.72842,25.72842,0,0,1-6.0436-4.4875.89516.89516,0,0,1,.4332-1.3334c1.3123-.2783,2.5972.5572,3.7799,1.0253,1.2659.5905,2.4547,1.3397,3.6548,2.052A1.64753,1.64753,0,0,1,110.13176,75.0177Z" />
  <path class="cls-3" d="M151.77476,76.6831c-1.1016-.8321-.5698-4.0389-.1763-5.2174a1.68967,1.68967,0,0,1,2.9992,1.4627c.1196.7197.2593,1.4364.3364,2.1631A1.92532,1.92532,0,0,1,151.77476,76.6831Z" />
  <path class="cls-3" d="M173.21666,74.7575c-2.8879-.8188-1.0147-4.2709-.3273-6.1208.1717-.4445.3193-.9065.5214-1.3397a1.055,1.055,0,0,1,1.8707-.0128,3.39,3.39,0,0,1,.2969,1.4744C175.62416,70.8004,176.46616,75.1106,173.21666,74.7575Z" />
  <path class="cls-3" d="M188.15386,72.9103a1.91573,1.91573,0,0,1-.1877-2.6825,23.31083,23.31083,0,0,1,2.222-2.2623c.8691-.6176,1.6788-1.6442,2.8205-1.654,1.7533.2373,1.1068,2.27.3819,3.2473a17.5857,17.5857,0,0,1-2.5542,3.1638A1.91859,1.91859,0,0,1,188.15386,72.9103Z" />
  <path class="cls-3" d="M132.19326,81.9687a18.49651,18.49651,0,0,1-3.488-4.6912,1.95958,1.95958,0,0,1-.0304-2.1534c1.8638-1.6977,5.3333,2.8696,6.5216,4.1716C136.93636,81.2293,133.91036,83.9285,132.19326,81.9687Z" />
  <path class="cls-3" d="M439.80535,345.6881c2.474,12.9474,3.4334,28.4682-6.04689,38.9096-5.83191,6.225-13.96461,9.0519-21.41691,12.7533a31.88677,31.88677,0,0,0-2.8542,1.7199c-6.2122,4.3366-8.5418,11.9221-12.9218,17.8006a39.0411,39.0411,0,0,1-22.5865,15.6091c-9.1931,2.1531-18.7649,1.683-27.9997,3.573a32.34894,32.34894,0,0,0-14.985,8.5947c-14.1667,13.8458-22.8465,18.9606-43.26389,17.7396a76.46109,76.46109,0,0,1-13.47361-2.2044c-10.51039-2.774-20.4816-8.0235-31.54869-8.2273a25.03728,25.03728,0,0,0-9.2525,1.1664,30.56015,30.56015,0,0,0-4.6623,2.4419c6.2154,13.456,15.4085,25.4985,24.88239,36.8592,26.4291,32.3315,44.42071,45.7073,45.3384,91.0328-.2423,6.4882,1.38131,27.1254-8.4872,24.8905-6.4112-1.0268-18.136-2.7483-15.1663-11.8259,2.19481-11.9415,3.9644-24.1781,1.39581-36.2158a62.07593,62.07593,0,0,0-6.64051-18.9607,5.25018,5.25018,0,0,0-.3001.6257c-5.9346,11.8933-15.816,20.1848-29.67469,16.7306-4.0302-.8873-7.8374-2.7179-11.9864-3.0163-.0176-.0016-.0336-.0016-.0513-.0032-2.6777.645-5.3763,1.2338-8.0251,1.967-1.6782.385-3.3725.8615-5.0795,1.2707-3.2986,1.322-6.5604,2.7258-9.8237,4.1393a103.92579,103.92579,0,0,1-12.6345,4.5693,46.50961,46.50961,0,0,1-6.6502,1.3781,32.86,32.86,0,0,1-4.3719.3097c-.783,0-1.5659-.0337-2.3457-.1059a29.12618,29.12618,0,0,1-7.1732-1.4792,35.1717,35.1717,0,0,1-3.6082-1.5082c-1.075-.5278-2.1146-1.1295-3.1366-1.7568a52.214,52.214,0,0,1-5.7983-4.2019,52.74848,52.74848,0,0,1-4.8452-4.5083,96.8791,96.8791,0,0,1-8.569-10.483c-1.7761-2.4981-3.35-5.1261-5.0314-7.6867-1.6669-2.5397-3.3981-5.0249-5.2736-7.4138a58.75648,58.75648,0,0,0-4.0334-4.396c-1.4937-1.3686-3.0403-2.6569-4.6303-3.9084a31.33024,31.33024,0,0,0-2.8045-1.7985c-.1957-.1075-.3898-.215-.5839-.3224l-.0562-.0305c-4.0703-2.1339-8.3621-3.8634-12.2736-6.2956a33.20033,33.20033,0,0,1-5.2238-3.9484,28.4549,28.4549,0,0,1-4.4811-5.2207,33.57,33.57,0,0,1-3.2184-6.2571,51.63806,51.63806,0,0,1-2.0552-6.8251,54.44137,54.44137,0,0,1-1.1391-13.9694,47.03116,47.03116,0,0,1,.8086-6.7993,35.50611,35.50611,0,0,1,2.1114-7.1059,34.2203,34.2203,0,0,1,3.1125-5.941,26.29463,26.29463,0,0,1,4.5709-5.3651,23.62124,23.62124,0,0,1,4.311-3.0612,22.98163,22.98163,0,0,1,2.3504-1.1166,29.51529,29.51529,0,0,1,2.8285-.9402,46.47975,46.47975,0,0,1,4.5934-.9305c1.5931-.2792,3.1702-.6017,4.7265-1.0348.7508-.2391,1.4857-.507,2.214-.8103.7878-.3722,1.5499-.7749,2.3023-1.2113.799-.5054,1.5916-1.022,2.344-1.5931.4493-.3787.8664-.7926,1.2771-1.2113.7734-.8439,1.4953-1.7231,2.1884-2.6328.8856-1.2178,1.7312-2.4628,2.6071-3.6869,1.0124-1.4135,2.0665-2.7933,3.1896-4.1217,1.9718-2.3296,4.0478-4.5661,5.8881-7.0031a31.78038,31.78038,0,0,0,1.8947-2.9072c.3626-.6995.6883-1.4118.9883-2.1402a28.63341,28.63341,0,0,0,.8857-2.8542,34.26082,34.26082,0,0,0,.5856-3.565,61.52153,61.52153,0,0,0,.1909-6.525,103.28561,103.28561,0,0,0-1.2129-11.6302c-1.4664-8.7166-3.7254-17.276-6.0213-25.805-.5792-2.1514-1.16-4.3029-1.6958-6.4656-.2535-1.0268-.5086-2.0569-.722-3.0933-.1332-.6385-.2792-1.2819-.3594-1.9301a3.74773,3.74773,0,0,1,1.2916-3.7221,2.98055,2.98055,0,0,1,1.7792-.5118,3.679,3.679,0,0,1,1.7376.5952,8.44413,8.44413,0,0,1,1.6076,1.4183c.7572.7637,1.4776,1.561,2.1964,2.3616,1.4038,1.5659,2.8269,3.1206,4.1794,4.733,1.5193,1.8065,2.989,3.6483,4.3928,5.5463a55.37525,55.37525,0,0,1,3.6243,5.6683,53.86671,53.86671,0,0,1,5.3234,12.9362,59.04535,59.04535,0,0,1,1.9926,13.8747c.069,4.4811-.2374,8.9573-.3128,13.4351-.0209,1.2996-.0049,2.5975.0288,3.8939.0851,1.8579.2327,3.6997.5006,5.5399.1989,1.075.4396,2.1307.73,3.1831.3048.9434.6482,1.8643,1.0348,2.7772.414.8648.86,1.7007,1.3461,2.5253.661,1.0252,1.3685,2.0023,2.121,2.9617,1.3669,1.6445,2.8173,3.2104,4.3206,4.733,1.5226,1.5418,3.0965,3.0451,4.5099,4.6912a20.45057,20.45057,0,0,1,3.7511,6.225,27.42371,27.42371,0,0,1,1.0701,3.512c.2535,1.1279.4075,2.2782.5535,3.4254a37.16716,37.16716,0,0,1,.1236,6.9165,59.69943,59.69943,0,0,1-.9129,6.8908c-.4284,2.3825-1.0798,4.7314-1.7279,7.0625-.576,2.0729-1.1889,4.1377-1.7568,6.2138q-.467,1.71585-.8969,3.4398c-.2278.9883-.4524,1.9798-.6353,2.9778-.2166,1.1904-.3899,2.3825-.5407,3.5826-.1428,1.6605-.2118,3.3098-.2022,4.9768.0385.8086.0883,1.6124.1508,2.4178.0594.7508.1813,1.4969.3001,2.2397.2278,1.1519.4941,2.2798.8086,3.4077.2326.7108.4604,1.4311.6112,1.7713.1493.3321.2953.6642.4445.9963.2968.5856.6032,1.1535.9257,1.7215.4813.7348.9835,1.4391,1.5226,2.1306.6064.7011,1.2353,1.3734,1.8883,2.0312,1.1648,1.0733,2.3745,2.0728,3.6388,3.0242,1.391.9787,2.8125,1.8868,4.2853,2.7339a50.16845,50.16845,0,0,0,4.6399,2.1916c1.5691.584,3.1526,1.0765,4.7714,1.5017a68.1998,68.1998,0,0,0,7.8374,1.3268,74.47807,74.47807,0,0,0,8.6493.3273c4.4297-.1957,8.8353-.7781,13.2313-1.3156a70.73339,70.73339,0,0,1,12.85439-.592,71.9608,71.9608,0,0,1,9.1354,1.1263c.1379.0257.2743.0529.4123.0802-1.59-1.8611-3.2345-3.6708-4.9126-5.4341-34.94359-35.2997-63.02189-73.8354-46.51439-125.7229,9.7306-33.2204,25.8579-54.8363,49.99109-78.9678q17.54625-18.58845,36.3473-35.9126c2.0472-1.5835,3.9195-4.8356,6.4834-4.7827,6.1175-4.7409,9.7017,4.1554,6.4319,8.8851-9.9456,11.7152-20.6452,22.7005-30.4929,34.4494-8.9429,9.9456-17.1589,20.504-25.3461,31.0689-10.297,13.01-19.973,26.8205-25.68459,42.5211a97.17746,97.17746,0,0,0-1.4343,49.7792q.21165.8256.4428,1.6461c.5294-2.076,1.1391-3.8858,1.3878-4.5516a56.76225,56.76225,0,0,1,10.1429-17.5472c7.6048-9.4674,17.32739-16.0871,29.33779-18.4456,11.1585-2.2285,22.72611-.2743,33.8686-2.5943,7.7251-2.0809,14.3769-6.9004,20.5907-11.7762,14.579-12.5238,25.4343-16.1465,44.5842-13.6084a73.13006,73.13006,0,0,0,14.1668.4749,49.29364,49.29364,0,0,0,36.28481-21.8597c4.69919-7.2567,6.03089-15.9685,8.96209-23.9744a51.7874,51.7874,0,0,1,5.5431-11.1745c.8359-1.2466,1.6044-2.6729,2.9794-3.3885,4.3976-1.5915,4.457,4.9223,4.7137,7.7348A239.66588,239.66588,0,0,0,439.80535,345.6881Z" />
  <path class="cls-3" d="M230.43506,547.7412c-7.1778-.2546-13.4367-4.2322-20.1287-6.3693a28.74833,28.74833,0,0,0-10.106-1.3056c-8.014.208-16.3797,2.1911-24.1396-.6454-5.8311-2.0813-9.6628-7.5166-11.9928-13.018-2.2773-5.4308-3.1039-11.2952-4.6292-16.9498a24.79771,24.79771,0,0,0-11.9048-15.7514c-7.32-3.9208-15.7038-4.3201-17.6765-14.0571-1.2578-7.5865,1.4034-15.419,4.9898-22.0362,4.1985-7.5921,10.4155-13.7687,15.4958-20.7444,8.214-11.0053,11.291-22.8756,9.2969-36.4434a67.696,67.696,0,0,0-1.9256-8.6564c-.6889-2.793-1.9278-5.4906-2.2635-8.349a.83563.83563,0,1,1,1.6641.1404c1.1669,3.2066,2.5065,6.3545,3.4794,9.6319,3.7686,12.009,3.3305,25.4125-2.1722,36.8207-3.1088,6.7041-7.732,12.5338-12.3088,18.2804-6.4959,7.9945-12.4745,17.4216-12.5386,28.042.0771,9.6685,7.9603,10.1111,14.7622,13.7555a28.47041,28.47041,0,0,1,13.8812,16.1288c2.1559,6.1764,2.7875,12.8105,5.3813,18.8457,3.795,8.7321,9.0028,12.1568,18.5495,11.9262,6.2092-.0991,12.3957-1.2436,18.6111-.7424,10.83.557,20.4795,9.4881,31.5509,6.3139,7.4363-2.4229,13.5515-8.438,21.519-9.2678.9096-.0994,1.82251-.1893,2.7369-.2438a2.27952,2.27952,0,0,1,.3724,4.5435,30.7811,30.7811,0,0,0-8.3112,2.3376C245.49986,543.1746,238.65026,548.2873,230.43506,547.7412Z" />
  <path class="cls-3" d="M234.76206,441.6768a2.32683,2.32683,0,0,1,.2149-3.2489,44.433,44.433,0,0,1,10.0965-6.7399c8.76519-4.419,16.06679-2.4961,25.13359-3.6052a34.47756,34.47756,0,0,0,12.9355-4.4979c7.0346-4.1455,13.0077-10.2997,21.0236-12.5889,8.0966-2.377,16.8541-1.9814,24.9771.074,5.7383,1.379,11.4796,4.4549,17.5134,3.2311,6.1366-1.4108,11.3707-5.4161,15.354-10.1798,3.2797-3.8486,5.8481-8.2681,9.2813-11.9896,12.3794-13.5767,34.7863-6.9001,47.3567-20.2006,4.98481-4.8344,7.312-11.5135,9.036-18.0816.3962-1.4311.7685-2.8687,1.1471-4.3062a20.24317,20.24317,0,0,1,.6081-2.0472c.1941-.515.531-1.1407,1.1359-1.2386a.85023.85023,0,0,1,.99471.9723,4.173,4.173,0,0,1-.13871.5254c-.239.9795-.3917,1.9812-.5705,2.9737-1.2772,7.0358-2.5587,14.3937-6.8925,20.2842-9.224,13.146-21.9096,13.4477-36.0844,16.8382-6.9454,1.7759-11.7635,4.7012-15.9795,10.5512-6.30239,8.7855-12.8151,16.8247-23.8347,19.5566-6.76769,1.6576-13.2952-1.5463-19.7162-3.2446a47.57641,47.57641,0,0,0-18.2218-1.1219c-11.1119,1.3331-17.0743,8.768-26.3289,13.8292a38.87342,38.87342,0,0,1-10.9884,3.9708c-5.4147,1.1369-10.9751.8928-16.449,1.4892-5.13139.5578-9.79539,2.9775-13.975,5.8943-1.0942.7193-2.2029,1.4054-3.2545,2.186-.3831.3007-.7579.6087-1.1255.9281A2.32667,2.32667,0,0,1,234.76206,441.6768Z" />
  <path class="cls-3" d="M217.79506,378.8066a1.05383,1.05383,0,0,1-.5696-1.3541c1.212-3.2119,2.4042-6.4317,3.6709-9.6215.684-1.621,1.4121-3.2482,2.1868-4.826.5327-.9458,1.0075-2.9021,2.4579-2.1803a1.15725,1.15725,0,0,1,.4251,1.5642,133.6347,133.6347,0,0,0-6.3903,14.7042C219.29316,377.918,218.94316,379.241,217.79506,378.8066Z" />
  <path class="cls-3" d="M223.12876,379.6412a1.22158,1.22158,0,0,1-.661-1.5723c.8327-2.153,1.6702-4.3029,2.5302-6.4448.8471-2.1129,1.7423-4.2083,2.6488-6.2956.4291-.7982.6138-2.3912,1.8739-1.9766a.97758.97758,0,0,1,.4343,1.4414c-.7452,2.0633-1.442,4.1467-2.2071,6.2035-.7942,2.1595-1.6237,4.3062-2.4548,6.4512C224.87726,378.4386,224.59576,380.1592,223.12876,379.6412Z" />
  <path class="cls-4" d="M290.00225,279.1943l-.0369-.0128A.11375.11375,0,0,0,290.00225,279.1943Zm141.4748-44.0596c15.3187,16.6952,3.8007,36.0425-17.783,35.4168a84.94382,84.94382,0,0,1-17.09159-2.2862c-7.84221-1.4921-25.73271-7.2823-32.54011-2.8013a.79768.79768,0,0,0-.069.8439l-.0161.0257c5.5689,6.2314,13.4576,10.0065,20.2265,14.8085,12.2688,8.2321,24.67871,18.7248,28.441,33.6295,5.2688,18.7713-7.7059,39.2176-25.5595,45.4843-21.287,7.3369-32.6669-18.7504-38.5052-34.7991-4.388-11.1745-7.8054-32.2161-16.453-39.7182-5.2704-4.25-7.1572,15.2257-7.7235,18.2371-3.2329,20.6821-2.6232,46.6299-13.3582,64.8621-6.8202,11.4441-20.7415,17.7285-33.8557,16.0439-8.7471-.9161-18.4986-4.9608-21.9416-13.6534-3.2232-8.5208.7669-17.4621,4.5549-25.1022,7.5791-15.7583,19.6778-28.85,26.928-44.78,2.867-6.0197,6.0373-12.6361,4.8773-19.4676a4.783,4.783,0,0,0-1.6846-2.7114c-10.9034-3.6099-25.3461,17.6963-32.3107,24.6947-11.93179,13.0452-24.17809,25.8129-36.47729,38.5101-8.1567,8.208-17.3306,15.9796-28.2838,20.0885-14.1571,4.8901-32.2096-1.2065-34.8986-17.3499-3.4093-14.4635,7.3321-27.2344,18.2724-35.2708,3.7398-2.6761,7.7139-5.0265,11.6831-7.3449a2.22209,2.22209,0,0,1,1.3766-.2807,2.16781,2.16781,0,0,1,.969-.9578q6.363-2.8446,12.7613-5.6074c4.3992-1.8964,8.8241-3.7318,13.2314-5.6073q3.9636-1.68465,7.9064-3.4141c2.6938-1.2033,5.3795-2.4227,8.0316-3.7174q3.9588-1.93,7.7219-4.2163c.6995-.4509,1.3926-.9081,2.0793-1.3782.6305-.4316,1.2257-.9081,1.8241-1.3814.5343-.4604,1.0541-.9305,1.5675-1.4166a18.545,18.545,0,0,0,1.2194-1.4279c.19569-.2872.37859-.5792.55189-.8792.1267-.2519.2422-.507.35131-.7685.05939-.1669.11229-.337.15729-.5086.0369-.1589.06571-.3177.0882-.4781.0128-.1332.0176-.2648.0192-.3979l-.032-.3626c-.0289-.1669-.069-.3321-.08669-.4268-.00961-.0257-.02081-.0497-.03211-.0754a.229.229,0,0,0-.04489-.1011c.01279.0305.02729.061.04009.0915.01291.0449.0273.0914.0401.138-.0353-.0947-.0706-.1894-.1059-.2824-.0497-.1059-.1042-.2086-.1636-.3097-.061-.0946-.12669-.1861-.1941-.2759-.07859-.0915-.1605-.1797-.2471-.2647-.0963-.0867-.1957-.1685-.29839-.2471-.1187-.0818-.2423-.1605-.3674-.2327-.1236-.0641-.2503-.1235-.3787-.178-.2342-.0851-.4684-.1605-.7091-.2295-.3626-.0754-.7252-.1315-1.0926-.1797-.4027-.0208-.8006-.0304-1.2033-.032-.43.032-.8519.0738-1.2787.1251-.876.162-1.7343.3706-2.5927.6129-4.3751,1.3717-8.5898,3.2023-12.8286,4.9399-4.364,1.7921-8.7327,3.5713-13.079,5.4068-4.3415,1.8322-8.6653,3.7125-13.0469,5.4485-4.4088,1.7455-8.861,3.374-13.3372,4.9431a132.50846,132.50846,0,0,1-13.9951,4.1633c-2.3199.5343-4.6591.9274-7.0176,1.2467a46.07857,46.07857,0,0,1-7.255.3433,41.41311,41.41311,0,0,1-13.7528-2.8686,32.18667,32.18667,0,0,1-6.3903-3.2265,21.9058,21.9058,0,0,1-3.0611-2.3889c-.3642-.3514-.7364-.6963-1.0782-1.0685-.4941-.5407-.9578-1.0958-1.4183-1.6622a20.03255,20.03255,0,0,1-2.0632-3.2569,16.57169,16.57169,0,0,1-1.8001-8.7615,18.29844,18.29844,0,0,1,.5904-3.3291,14.12877,14.12877,0,0,1,.5936-1.8162c.2455-.6.4942-1.1856.7798-1.768.2791-.5712.6032-1.1151.9193-1.6654a13.329,13.329,0,0,1,.9514-1.3862c.3946-.5166.7925-1.0155,1.2145-1.5081a22.621,22.621,0,0,1,2.3953-2.4066c.9386-.8086,1.9077-1.561,2.912-2.2862a36.76551,36.76551,0,0,1,3.159-1.9638,66.997,66.997,0,0,1,6.1657-3.0884c2.1643-.9707,4.3399-1.9173,6.5443-2.7933,4.3463-1.7295,8.7663-3.2617,13.2394-4.6286,4.6222-1.4119,9.2797-2.689,13.9581-3.9035,4.6479-1.2065,9.2958-2.4114,13.9678-3.5136,4.6848-1.1038,9.4081-1.9782,14.1716-2.6601,4.542-.6497,9.1145-1.1022,13.6806-1.5466,4.8709-.4733,9.7482-.8744,14.6191-1.3412,4.7859-.4589,9.55249-1.0509,14.31919-1.6782q6.98865-.91935,13.9822-1.813c4.7538-.6097,9.5044-1.237,14.2646-1.8001,4.6447-.5503,9.3054-.9659,13.9694-1.33,4.8051-.3755,9.6102-.6418,14.4298-.7541.3193-.0064.6402-.0144.8038-.0177.5535-.008,1.1054-.0176,1.58191-.0256q2.90713-.04815,5.81429-.0209c21.74271-1.6573,43.5046-3.3499,65.313-2.3263C400.11765,220.6519,419.19546,222.0622,431.47705,235.1347Z" />
  <path class="cls-5" d="M346.38035,228.7171c5.986,11.9688-4.1714,17.6772-14.2164,20.8442-12.1661,4.027-25.1472,4.8533-37.8828,4.4827a93.55276,93.55276,0,0,1-26.697-4.5581c-9.3953-2.9248-18.3606-8.0027-12.3281-19.0152a55.02431,55.02431,0,0,1,27.4479-25.606c10.0081-3.9387,21.3062-6.1095,31.916-3.536,10.8457,2.8173,21.4137,8.6572,27.9484,17.9675A23.6219,23.6219,0,0,1,346.38035,228.7171Z" />
  <path class="cls-3" d="M300.25585,201.5718a35.07489,35.07489,0,0,1-.2729-6.4705c.03051-1.0797.04651-2.1659.1347-3.2425a3.923,3.923,0,0,1,.6803-2.445c.923-.7143,1.775.1043,1.813,1.107a64.49908,64.49908,0,0,1,.7487,10.3209,1.72547,1.72547,0,0,1-1.42419,2.166A1.58106,1.58106,0,0,1,300.25585,201.5718Z" />
  <path class="cls-3" d="M314.05455,204.3955a1.77066,1.77066,0,0,1-.8934-2.4964,20.6576,20.6576,0,0,1,1.5012-3.9115c.72311-1.273,1.0535-2.8577,2.1292-3.8842a1.28884,1.28884,0,0,1,1.866.4765,3.9089,3.9089,0,0,1-.1686,2.6248,27.28392,27.28392,0,0,1-2.4547,6.3694A1.643,1.643,0,0,1,314.05455,204.3955Z" />
  <path class="cls-3" d="M328.36185,209.0965c-1.7261-1.3436-.1765-2.8441.8631-4.0013.5651-.6167,1.1386-1.176,1.7119-1.7616.7453-.7538,1.4839-1.5155,2.2012-2.296.6838-.6394,1.2722-1.7417,2.336-1.6461,1.4977.4418.3731,2.1862-.1523,3.0196a61.7778,61.7778,0,0,1-4.7138,6.3822A1.73549,1.73549,0,0,1,328.36185,209.0965Z" />
  <path class="cls-3" d="M336.29035,217.8923c-1.6573-2.7154,3.4747-4.7204,5.20311-6.0214,1.505-.6165,4.44779-3.4891,5.77459-1.5863.638,1.8213-2.5659,3.3532-3.6085,4.5806C341.84855,216.1168,338.35335,220.5316,336.29035,217.8923Z" />
  <path class="cls-3" d="M345.15285,229.7818a2.04688,2.04688,0,0,1,.2165-3.735,28.29173,28.29173,0,0,1,4.2388-1.2613c1.5314-.1795,4.1414-1.5959,5.2337-.035.715,1.9597-2.383,2.8469-3.59239,3.4721C349.33485,228.8789,347.21225,230.3867,345.15285,229.7818Z" />
  <path class="cls-3" d="M284.15085,205.7755a41.33813,41.33813,0,0,1-3.5442-7.9914c-.2727-.8535-.6481-1.9365-.1476-2.7707a1.27583,1.27583,0,0,1,2.179.1362c.8297,2.0217,6.6865,10.2347,3.7781,11.364A1.699,1.699,0,0,1,284.15085,205.7755Z" />
  <path class="cls-3" d="M269.92835,214.2595a47.34323,47.34323,0,0,1-3.204-3.5697c-1.0807-1.4792-2.434-2.8718-3.0595-4.6191a1.54845,1.54845,0,0,1,.00961-1.0813.84714.84714,0,0,1,1.53349.0202,74.93091,74.93091,0,0,1,5.2981,5.34c.7957,1.1562,2.9749,2.5779,1.5161,4.0302A1.50059,1.50059,0,0,1,269.92835,214.2595Z" />
  <path class="cls-3" d="M259.02065,226.1253a34.29392,34.29392,0,0,1-7.7466-7.0699c-.6563-.7489-1.4759-2.4475-.0732-2.8533.95761-.0498,1.7452.7623,2.5782,1.1328a46.23148,46.23148,0,0,1,6.0375,4.0189c.8266.8254,2.1621,1.3473,2.4304,2.5783A2.12268,2.12268,0,0,1,259.02065,226.1253Z" />
  <path class="cls-3" d="M286.62575,227.019c-2.0554-2.0112-2.3148-5.4197-3.1618-8.0944-.2703-.991-.7389-2.6044.6323-2.9603,1.8988-.1053,2.1807,3.056,3.0721,4.3242C288.068,222.1999,291.10115,227.9661,286.62575,227.019Z" />
  <path class="cls-3" d="M303.71935,223.7958c-2.8567-.8661-.75589-4.4871-.4907-6.485.46281-1.5612,1.016-3.0955,1.3846-4.6816a1.2204,1.2204,0,0,1,1.0881-1.1296c2.4842-.0088,1.04611,6.6066.8403,8.2402C306.09605,221.3152,306.029,224.1776,303.71935,223.7958Z" />
  <path class="cls-3" d="M320.77685,227.585a1.62352,1.62352,0,0,1-.7316-2.1515,36.351,36.351,0,0,1,2.8766-5.6732c.3481-.5206.58-1.2162,1.152-1.5321a.86292.86292,0,0,1,1.1825.4701c.2213,1.2889-.4501,2.5914-.7173,3.8409a32.48508,32.48508,0,0,1-1.237,3.4173C322.93346,227.1661,322.15235,228.1708,320.77685,227.585Z" />
  <path class="cls-3" d="M333.28246,235.8951c-2.32521-1.3547-.00051-4.1408.666-5.8801.69309-1.1177,1.41649-3.2832,3.10809-2.5959,2.0934,1.6684-.5522,5.6405-1.2567,7.6209A1.89493,1.89493,0,0,1,333.28246,235.8951Z" />
  <path class="cls-3" d="M274.34455,236.7027a36.925,36.925,0,0,1-5.6812-6.3341,3.15966,3.15966,0,0,1-.6048-1.306,1.09029,1.09029,0,0,1,1.6718-.9178,18.39483,18.39483,0,0,1,3.459,2.5719c1.2258,1.0284,2.3713,2.1483,3.54411,3.2377a1.86983,1.86983,0,0,1,.62079,1.2321A1.835,1.835,0,0,1,274.34455,236.7027Z" />
  <path class="cls-3" d="M294.90485,241.9757a20.0707,20.0707,0,0,1-1.3572-6.8347c-.2129-1.3891-.0124-4.1925,2.04081-2.949a36.85306,36.85306,0,0,1,3.53739,8.2819A2.24059,2.24059,0,0,1,294.90485,241.9757Z" />
  <path class="cls-3" d="M313.06725,242.9793c-2.4583-.5576-1.475-3.2948-1.0722-5.0155.5512-1.5306,1.6223-6.3462,3.0745-6.8265,2.2858-.3825.9814,4.1782,1.1905,5.5674C315.83025,238.8321,316.24305,243.3037,313.06725,242.9793Z" />
  <path class="cls-3" d="M266.63205,247.0492c-1.5719-2.1597-9.1902-8.8123-4.6152-10.7801,2.5789-.2257,5.8375,6.2218,7.8931,8.0028C271.72225,246.3724,268.42635,249.1827,266.63205,247.0492Z" />
  <path class="cls-3" d="M284.36855,244.887c-.4175-1.6088-1.49909-5.8751,1.2567-5.6941,1.44421.5667,1.8597,3.1204,2.5394,4.4474C289.002,246.081,285.14885,247.3599,284.36855,244.887Z" />
  <path class="cls-3" d="M329.503,245.1526c-2.715-1.326.1089-4.0547,1.346-5.4117a.95739.95739,0,0,1,1.3557-.1219c.5271.5369.2796,1.3465.2069,2.0103C332.18,243.1731,331.61485,245.8461,329.503,245.1526Z" />
  <path class="cls-3" d="M303.98365,247.5446c-.3231-1.4954-.1364-4.7972,2.1559-3.6017C310.16746,248.3513,305.121,250.9389,303.98365,247.5446Z" />
  <path class="cls-3" d="M344.21005,240.913a1.90943,1.90943,0,0,1,.05141-2.8398,11.778,11.778,0,0,1,1.27859-.937c.802-.4004,2.6332-1.798,3.4605-1.2718l-.0013-.0036c1.188.9312-1.39879,4.096-2.1179,4.9302A1.911,1.911,0,0,1,344.21005,240.913Z" />
  <path class="cls-6" d="M381.92885,209.5145c.2683-14.4844,1.79961-28.9509,3.3115-43.3313l.0036.0039a1.43437,1.43437,0,0,1,2.4321-.3777c.7789,1.2575.42841,2.8637.5181,4.2693-.0715,6.5848-.4875,13.1605-.88269,19.7323-.27991,6.5596-1.20431,13.0669-1.57371,19.615C385.83146,211.8811,381.93305,211.9888,381.92885,209.5145Z" />
  <path class="cls-6" d="M394.14205,196.9671c-6.1372-4.1898-11.9291-8.8697-18.234-12.8207-1.582-1.0282-3.176-1.9959-4.70059-3.1029-.60951-.4961-1.55-.9283-1.30441-1.89.7797-2.0416,3.2842-.5353,4.6271.0546a100.56214,100.56214,0,0,1,15.7727,9.5637,49.02714,49.02714,0,0,1,6.4142,5.1276A2.00856,2.00856,0,0,1,394.14205,196.9671Z" />
  <path class="cls-6" d="M364.93835,202.347c-1.5688-3.2777,3.9014-4.5723,5.6837-6.445,2.99041-2.1947,6.0282-4.3244,9.1572-6.3193,3.5104-2.287,7.0184-4.6012,10.33721-6.981,2.08969-1.1565,9.67049-8.3852,10.98829-4.2786a1.29978,1.29978,0,0,1-1.0704,1.3004c-8.3912,6.5472-16.532,13.482-25.5943,19.1335C371.91815,199.7462,367.08946,205.5801,364.93835,202.347Z" />
  <path class="cls-6" d="M123.373,360.228a2.07205,2.07205,0,0,1-.6129-1.3894c-.104-1.2078-.2022-2.3604-.2953-3.3887-.3336-3.6642-.7391-7.2966-1.0269-10.9609-.8887-14.1679-1.9394-28.3395-2.3567-42.5291-.0032-.6578-.0064-1.3188.0353-1.975a3.32368,3.32368,0,0,1,.4733-2.0584,1.05258,1.05258,0,0,1,1.7864.5836c.0997,1.4173.1327,2.8434.2464,4.2632,1.2156,15.147,3.2475,30.1027,4.3511,45.2453.2262,3.5778.4572,7.1556.7492,10.7301A1.99785,1.99785,0,0,1,123.373,360.228Z" />
  <path class="cls-6" d="M137.07546,340.6681c-11.7884-8.5184-25.0963-15.2079-36.1741-24.6338l.0037-.0006c-.8578-4.1665,4.561-.5944,6.0626.3277,5.0667,2.9003,10.2238,5.6441,15.1245,8.8242a168.31831,168.31831,0,0,1,17.3706,12.2364C141.55736,338.9546,139.16186,342.2433,137.07546,340.6681Z" />
  <path class="cls-6" d="M106.06806,347.1034a2.2621,2.2621,0,0,1-.0738-3.1607c2.1964-2.413,4.319-4.8837,6.4288-7.3721,5.4853-6.4457,11.4517-12.4598,17.1973-18.6686,2.3325-2.5563,4.5461-5.2118,6.6903-7.9274.7543-.8842,1.4022-2.0203,2.5029-2.4995a.98.98,0,0,1,1.1889.4909c.3016.5744-.1043,1.322-.3658,1.8274-.3001.576-.6322,1.1359-.9819,1.683a103.76341,103.76341,0,0,1-8.0669,10.759c-6.4449,7.547-12.3791,15.0937-19.105,22.3154q-1.124,1.24185-2.2542,2.4804A2.25292,2.25292,0,0,1,106.06806,347.1034Z" />
  <path class="cls-6" d="M39.171,227.548c-2.3233-12.0163-2.3329-24.6531-3.3804-36.9412.3014-2.287-2.0457-12.5105,1.1284-12.1804a1.42146,1.42146,0,0,1,1.1983,1.7472c.3447,8.5442,1.6886,17.0367,2.426,25.5578q.68775,6.6741.8667,13.3824C41.05006,221.3351,43.77306,229.8883,39.171,227.548Z" />
  <path class="cls-6" d="M50.43776,211.5439c-5.9846-3.7871-11.3746-8.3944-17.0246-12.6472-1.3765-1.4382-10.7712-7.0756-7.081-8.7605a189.4654,189.4654,0,0,1,25.4164,17.8781C54.33766,209.1842,53.18436,213.013,50.43776,211.5439Z" />
  <path class="cls-6" d="M27.35656,216.9331c-4.6222-2.7173,20.044-26.4766,22.6484-30.8923,1.131-1.2064,3.1603-4.629,4.7345-2.2011a1.46085,1.46085,0,0,1-.7079,1.9072q-6.5169,8.83515-13.4893,17.331c-1.7651,2.1956-3.5756,4.3526-5.3727,6.5207C32.96636,211.2754,30.33476,218.9852,27.35656,216.9331Z" />
  <path class="cls-6" d="M312.31275,518.5068a2.17684,2.17684,0,0,1-1.0541-1.306c-.4219-1.7648-.807-3.5377-1.1936-5.3105-1.2177-5.187-2.121-10.4388-2.8769-15.7102-.2513-2.8309-4.4711-25.6808-.5404-24.8199,1.3615.2342.8114,1.9836,1.01771,2.964,1.14429,10.4406,4.03509,20.5903,5.83129,30.9223.5546,3.3479,1.1179,6.6941,1.8711,10.0039C316.22805,517.4173,314.58585,519.5547,312.31275,518.5068Z" />
  <path class="cls-6" d="M292.51046,503.7046c-1.04831-2.4348,3.71249-3.7601,5.01579-5.381,7.441-5.7752,14.9564-11.4837,22.779-16.7355,1.6127-.8117,3.0876-2.3258,4.8228-2.6517a1.48685,1.48685,0,0,1-.4248,2.9432c-8.9107,5.5525-16.5921,12.8237-25.1793,18.8321C297.48685,501.5329,294.55505,505.8992,292.51046,503.7046Z" />
  <path class="cls-6" d="M321.28315,505.1375c-2.49969-2.1072-5.06269-4.051-7.422-6.31-4.3909-4.0098-8.3693-8.4329-12.61369-12.5912-2.33611-2.324-4.94171-4.4376-6.81381-7.1748-.2358-.361-.4396-.9049-.06419-1.258,1.04639-.886,2.67259.9127,3.56009,1.4667,6.0086,4.3833,11.30191,9.6005,16.838,14.5421,3.198,2.699,6.1352,5.6719,9.2205,8.4935A1.95816,1.95816,0,0,1,321.28315,505.1375Z" />
  <path class="cls-6" d="M281.98165,107.1685c-.0331-6.7205-.2305-13.4427.0089-20.1691.49691-2.1201-1.2004-14.4555,2.9483-11.7743a206.67038,206.67038,0,0,1,.4503,32.0972C285.23425,109.3684,281.953,109.2423,281.98165,107.1685Z" />
  <path class="cls-6" d="M288.71115,95.9049c-6.1258-2.1905-11.37769-6.1807-17.317-8.749-2.9696.6065-2.6086-3.5497.1919-3.3839,6.6522.5757,13.6855,5.2838,19.0709,9.0976A1.81052,1.81052,0,0,1,288.71115,95.9049Z" />
  <path class="cls-6" d="M269.82275,101.8939c-2.878-2.6929,5.99-8.3036,7.6965-10.5103,5.697-4.6604,10.9708-9.9556,16.9964-14.167,7.43781-.7451-12.2533,14.7551-13.3077,16.5257-2.8431,2.6513-5.7089,5.2754-8.4006,8.0829A2.13358,2.13358,0,0,1,269.82275,101.8939Z" />
  <path class="cls-6" d="M226.09636,600.1911c-.1925-1.6477-.4829-3.2746-.7573-4.9111-.6112-5.2591-.544-10.5755-.7139-15.8641-.0562-2.7555-.1699-5.5156-.0963-8.2722a11.28279,11.28279,0,0,1,.3546-3.1206,1.08686,1.08686,0,0,1,1.258-.645c1.1911.2693.897,2.5324,1.1536,3.5121.9843,7.8319,1.818,15.6983,2.3487,23.5732.0072,1.7996-.0612,3.6004.1139,5.3939A1.84474,1.84474,0,0,1,226.09636,600.1911Z" />
  <path class="cls-6" d="M240.13926,591.573c-4.3528-1.9923-8.4964-4.3977-12.6442-6.78-4.8012-2.8675-9.9071-5.276-14.4282-8.582a.71078.71078,0,0,1-.0536-.9701c.4167-.4676,1.1263-.2022,1.6339-.0374a143.3699,143.3699,0,0,1,23.0374,12.1227c1.1355.7114,2.2296,1.479,3.3274,2.2452a1.3183,1.3183,0,0,1,.6867.7453A1.09026,1.09026,0,0,1,240.13926,591.573Z" />
  <path class="cls-6" d="M211.88346,597.6809a1.56442,1.56442,0,0,1,.231-2.182q2.72655-2.40885,5.4531-4.8181c5.7481-4.7837,11.5067-9.555,17.0131-14.6206,1.7683-1.5796,3.5723-3.1562,5.3859-4.6767a.73594.73594,0,0,1,1.0958-.1734.68043.68043,0,0,1,.0225.9435c-3.3058,3.7968-6.9956,7.238-10.5312,10.8183-3.5693,3.516-7.156,7.0222-10.9853,10.2552-1.8514,1.5418-3.6933,3.0917-5.503,4.6832A1.56246,1.56246,0,0,1,211.88346,597.6809Z" />
  <path class="cls-6" d="M172.93826,598.1559c2.0728,1.4199,5.556,3.3323,4.2275,6.3261-2.5509,4.4794-15.885,3.9596-20.8795,4.696-8.9139.6338-17.8359,1.1536-26.7531,1.7617-29.9394,1.9766-59.8644,4.6928-89.8889,4.7361-15.001,1.6621-13.5699-21.2453-14.9481-31.2679-1.2161-16.9022-.6417-33.8958.1203-50.8093.5215-8.5273,1.8547-16.9824,2.2013-25.5258.5069-12.1869,1.4343-24.8054,3.0659-36.811.5231-4.1971,1.1023-8.3941,1.8098-12.5639.7797-2.8687.223-7.1043,3.4045-8.5161,6.0902-1.4215,12.6474,7.2005,16.0727,11.428,14.9465,22.4197,12.004,51.342,9.7884,76.9047a179.181,179.181,0,0,1,20.4302-29.0346c2.2751-2.0761,7.592-9.4258,10.7125-8.1439,4.7201,2.3168,3.7382,10.1542,3.5746,14.5807a107.70723,107.70723,0,0,1-16.0021,45.2052c12.2719-10.8954,28.1826-16.8413,44.4527-18.0558a63.421,63.421,0,0,1,11.7312.3321c10.0547,3.658-5.0538,16.0952-9.1931,19.2526-9.6857,7.077-20.5746,12.3281-31.3144,17.5969,22.5673-1.9316,46.1422.7156,66.3895,11.3816C165.69126,593.6572,169.37326,595.8183,172.93826,598.1559Z" />
  <path class="cls-7" d="M152.59326,598.6679c-1.2823-1.0282-3.0697-.4109-4.5884-.5618q-1.8516-.0027-3.703-.0382c-32.4731-.437-64.703-.8865-97.2198-.5604.781-.4108,1.52-.8687,2.1-1.1429,3.8489-2.2044,7.5954-4.5851,11.4088-6.8509,6.6889-4.0421,13.52-7.8364,20.3757-11.5853,11.0165-6.2952,22.1159-12.4442,33.2172-18.5852a1.64,1.64,0,0,0-1.4585-2.9376c-10.1706,5.0823-19.9252,10.9405-29.795,16.5765-12.028,6.6141-23.8679,13.5611-35.59,20.7191.0004-.0041-.1772.0968-.355.1973,6.0201-10.9203,11.0397-22.3507,16.7695-33.421,7.8134-15.5872,16.7415-30.5829,24.7075-46.0892.6894-1.3253-1.1076-2.0097-1.7552-.8182-3.1037,5.0413-6.008,10.2075-9.0247,15.3026a596.49273,596.49273,0,0,0-28.3943,53.6715q-2.252,4.8333-4.7544,9.5417c.0057-.3462.0135-.6925.0122-1.0391.1164-20.5417.4069-41.0805.4173-61.6213-.4084-19.5714-1.0704-39.1457-1.0189-58.7253.0214-1.0983-.0016-2.1971.0497-3.2922a.917.917,0,0,0-.8487-1.006.934.934,0,0,0-.9797,1.0133c-.0604,1.3296-.1381,2.6563-.1867,3.9844-.4752,19.7203-.036,39.5504.0658,59.3398-.1495,16.5181-.7173,33.3519-.9512,49.9173-.1504,5.9692-.5437,11.9305-.2552,17.9017a1.79418,1.79418,0,0,0,2.5572,1.4665c3.3274.7399,6.824.5025,10.2185.6791,25.2785.6116,50.8264.4727,76.0158,1.782,7.1863.5461,14.3876.2706,21.5854.228A2.33581,2.33581,0,0,0,152.59326,598.6679Z" />
  <path class="cls-6" d="M447.14225,469.0141c.1668,12.9794-1.3974,25.8899-1.8739,38.8486-.1653,8.516-.31289,17.0289-.6915,25.5386-.2183,17.422-1.5739,34.7911-3.4206,52.1104-.3353,3.4543-.6273,6.9278-1.1953,10.3531a39.64119,39.64119,0,0,1-.21649,9.0023c-.47331,3.4526-3.26171,5.3345-6.64061,5.4212-2.84139.385-5.7068.5503-8.5722.677-8.5129.3562-17.0354.3674-25.5547.2343-17.4493-.2856-34.8858-1.2932-52.2917-2.551-6.9422-.9626-20.0212-.661-25.0445-5.4966-3.8072-4.4121,1.7183-8.1952,5.3699-10.0611a59.83407,59.83407,0,0,1,11.6462-5.11,117.5894,117.5894,0,0,1,31.5134-6.3133c-20.9004-8.208-41.67079-17.7525-59.465-31.6064-5.1629-4.3864-10.7253-9.3664-12.6057-16.1064-1.3862-4.6126,1.813-8.6284,6.5892-8.5241,11.0029.6642,21.6929,4.1762,32.1664,7.4203a297.81109,297.81109,0,0,1,47.7385,20.2971c-13.2779-13.1287-23.5604-28.94-33.0231-44.9437-6.5924-11.5339-13.2346-23.3647-16.3888-36.3714-1.1937-6.4192-2.851-15.7214,3.7029-19.7388,5.5624-2.6777,18.28681,4.6174,23.25881,7.7075,26.16749,16.8412,41.59369,45.0912,52.25489,73.521-3.78-26.5975-1.5162-53.8609,4.6527-79.9289,2.6697-10.8008,5.6282-21.7972,11.4168-31.3979,2.2991-4.3238,10.6868-14.0656,13.4977-5.2479,2.7275,9.0968,1.8691,19.0216,2.1178,28.234C446.09935,453.0071,447.01865,461.0018,447.14225,469.0141Z" />
  <path class="cls-7" d="M434.59935,453.455c-.4976,5.0886-.8372,10.184-1.0941,15.2897-1.0881,18.5686-2.3111,37.1296-3.0739,55.7155-.5378,14.7521-1.6196,29.4757-3.13689,44.164-.79151,6.9932-1.00441,14.1449-2.89851,20.9538l-.0017-.0005c-11.8214-16.7133-21.5432-34.7835-31.8409-52.4442-12.0964-20.135-24.8952-39.8381-37.6261-59.5741-.7325-1.1768-1.4934-2.3308-2.2455-3.4925a.92148.92148,0,1,0-1.6515.8101c.4396.7427.9161,1.4647,1.3685,2.2011,13.2094,21.303,26.5819,42.5148,39.0989,64.2364,8.5362,15.3308,16.7305,30.8957,26.4665,45.5128-10.9052-5.199-21.9769-10.0438-32.7981-15.4173-18.0255-9.0066-35.768-18.5922-54.0469-27.0838-4.4854-2.0678-8.9759-4.124-13.5362-6.0244-.7236-.3097-1.4456-.6209-2.1723-.9241a3.15537,3.15537,0,0,0-1.7344-.4525.78815.78815,0,0,0-.5583.961c.1428.5279.6786.8327,1.1086,1.1055,1.7845,1.0896,3.6898,1.9698,5.5592,2.8991,24.0519,11.6285,47.1282,25.1635,71.20271,36.7468,5.96919,2.8316,12.02639,5.4599,17.96589,8.3541,3.574,1.7341,7.2826,3.5995,10.9508,5.2613a254.05847,254.05847,0,0,1-52.2429,7.0521c-4.9165.2514-9.8289.5647-14.7491.7399-1.5468.0566-3.0876.1715-4.6312.2738-1.7346-.019-3.522.2329-3.625,2.3543a2.31433,2.31433,0,0,0,2.28951,2.3038c1.94289-.0482,3.88419-.0225,5.82549-.1172,13.237-.689,26.50951-1.1426,39.6669-2.8428a292.27917,292.27917,0,0,0,29.7613-5.6587c1.72931-.5457,3.79831-.8003,5.0378-2.2478a2.35353,2.35353,0,0,0,.3253-2.2883,17.05306,17.05306,0,0,0,1.2027-4.1021c.5519-2.9956.9498-6.0167,1.253-9.0474,1.22251-12.5417,2.5463-25.0783,3.4013-37.6517.80521-13.3908,1.3285-27.229,2.0729-40.6904.9526-15.4683,1.8359-30.9434,2.4674-46.4277A1.69564,1.69564,0,0,0,434.59935,453.455Z" />
  <path class="cls-6" d="M441.26215,45.4898c.84231,11.4056.2727,22.8513.1524,34.2729-.369,15.6605-3.18309,31.1107-4.3479,46.7085-.592,7.7701-.9818,15.561-1.9429,23.2989-.9867,8.0589-2.3777,16.0567-3.7029,24.0642-.9883,5.3362-3.9099,25.6798-10.9949,24.1749-4.3896-.9915-9.6038-14.6272-10.9258-18.8836a92.06579,92.06579,0,0,1-3.8939-20.326,170.64222,170.64222,0,0,1,.0738-18.2082c.5311-11.7072,2.1355-23.3181,3.6131-34.9323-11.7842,21.6849-26.551,41.9611-45.7041,57.7162-4.1971,3.3387-13.809,11.3527-19.2799,8.975-2.9553-1.3509-2.7708-5.0442-2.6585-7.8022a58.86343,58.86343,0,0,1,2.1579-12.0858c6.663-25.3493,21.3175-47.2877,36.6538-68.1591a173.72089,173.72089,0,0,1-39.30589,27.1317c-8.60911,4.4313-40.42891,18.2066-48.52621,13.2523-3.2264-2.4355-.9546-6.1112.8038-8.691,15.5272-23.6775,40.3038-38.4331,66.0092-48.9274-16.7482.5744-46.7983-.2454-58.3772-13.5506-3.143-3.3997-6.655-9.8574-1.5161-13.0982,5.01051-2.8269,10.8521-3.804,16.4482-4.8437,11.5884-1.9381,23.3277-2.737,35.02531-3.7269,18.16169-1.6205,36.41159-1.5643,54.59889-2.4323,9.2428-.6016,20.8746-3.0612,29.4533.9739a8.99038,8.99038,0,0,1,4.3495,4.242C440.69585,38.0888,440.882,41.8543,441.26215,45.4898Z" />
  <path class="cls-7" d="M428.70585,84.4794c-.051-6.4175-.0783-12.8415-.2869-19.2574-.2171-2.6757-.1024-12.4152-2.2219-15.7593a2.34006,2.34006,0,0,0,.1879-1.1995c-.3612-2.722-6.508-4.6144-8.9876-5.1501-10.1655-2.1218-20.6416-1.3986-30.9487-1.131-17.2806.4299-34.5411,1.5917-51.7527,3.175-3.3149.3704-6.659.5712-9.9297,1.246-1.594.0999-3.0982.9448-2.9037,2.7459a2.36443,2.36443,0,0,0,2.7525,1.9871c1.3502-.0496,2.702-.1051,4.0436-.277,4.2611-.5052,8.5227-1.0218,12.7934-1.4279,15.28041-1.5969,30.6308-2.4146,45.9961-2.7914,9.5664-.2481,19.2971-.9281,28.7412.9706-10.1097,4.4462-19.7926,9.7914-29.484,15.0714-9.103,4.9309-18.1936,9.8931-27.0291,15.2931-17.9756,10.7624-35.0264,23.0885-52.9334,33.8992h.0031a.9759.9759,0,0,0,.40751,1.4775c1.85069.7227,9.49389-4.5344,11.75379-5.7772,8.8727-5.5111,17.6257-11.2141,26.5477-16.6473,18.9566-11.7048,38.3931-22.5914,58.4109-32.3878,4.3404-2.1376,8.6648-4.3104,13.0324-6.3902a30.7699,30.7699,0,0,1,4.5735-1.885c-.18629.2695-.3605.5399-.5256.7914-1.0643,1.6232-2.1226,3.2942-3.18669,4.9685-5.23821,8.2608-10.49921,16.3894-15.92,24.555C394.25025,92.43,386.268,104.073,378.39,115.7479c-5.10359,7.8029-10.136,15.7001-15.2055,23.5342-4.5652,7.0185-8.8714,14.1332-13.5747,21.0591a.93423.93423,0,0,0,1.7629.6131c1.5475-1.9066,3.007-3.8866,4.3852-5.9204,8.8472-13.0057,17.49351-26.1406,26.2797-39.1855,14.334-20.5805,28.5927-41.2466,41.7985-62.5761,1.652,11.8795.9486,23.9537,1.1578,35.916.27551,19.1417.1854,38.2831-.6616,57.4114q-.35115,9.4473-.9824,18.8838c-.1394,1.8867-.3257,3.7675-.5816,5.6408a1.83462,1.83462,0,0,0,3.63711.4845c.23749-1.7167.42359-3.4398.62409-5.1613a148.77005,148.77005,0,0,0,1.1342-14.8534C429.153,129.2304,429.12646,106.8556,428.70585,84.4794Z" />    </g>  </g>
</svg>