<svg id="OBJECTS" xmlns="http://www.w3.org/2000/svg" viewBox="0 0 500 500">  <defs>    <style>      .cls-1 {        fill: #fbf4ef;      }      .cls-2 {        fill: #ebacd9;      }      .cls-3 {        fill: #5656ea;      }      .cls-4 {        fill: #edba6d;      }      .cls-5 {        fill: #3c2324;      }    </style>  </defs>
  <path class="cls-1" d="M0 0h500v500H0Z" />
  <path class="cls-2" d="M64.161,423.3552c-5.20661-3.5636-10.37781-7.5843-13.355-13.1471-2.97711-5.5629-3.211-13.0412,1.00539-17.7349,6.6718-7.4268,18.8667-3.8408,27.6795.8501a227.67377,227.67377,0,0,1,47.0742,33.3472c3.8054,3.4996,7.6492,7.2284,12.5207,8.9597s11.1314.8141,13.9195-3.5396c4.3702-6.8239-2.3086-15.2778-8.6974-20.2625-20.7794-16.2125-44.3845-28.4363-65.7126-43.9198s-40.969-35.2721-48.8729-60.4148c-3.2638-10.3822-3.43039-23.7657,5.555-29.9062,6.4514-4.4088,15.4948-3.1407,22.124.9959,6.6291,4.1367,11.3824,10.6234,15.9678,16.9505q29.3553,40.50645,58.71081,81.0128c5.39849,7.4491,12.66409,15.7612,21.78679,14.5745,8.0097-1.0419,13.3264-9.6849,13.2164-17.7613-.1099-8.0764-4.3084-15.5054-8.9379-22.1242-19.4494-27.8076-47.8525-47.7596-74.2349-69.1022-26.38239-21.3427-52.1879-46.0135-62.9731-78.1883-3.8242-11.4086-5.59829-23.9092-2.2742-35.4734,3.324-11.5642,12.5334-21.9117,24.3637-24.1086,10.8304-2.0111,22.0121,2.9858,30.0744,10.492s13.57,17.2882,18.9476,26.902q34.93,62.446,69.86,124.8921c2.7824,4.9743,5.6683,10.0739,10.0913,13.6688s10.8035,5.3816,15.9296,2.8899c8.5719-4.1667,8.4646-16.3286,6.3432-25.6205-9.0043-39.4401-30.708-74.811-54.92589-107.2162-24.21791-32.4051-51.31411-62.7099-73.37961-96.6172-9.598-14.7488-18.0726-34.7663-7.5151-48.8442C66.795,33.7851,83.954,32.6726,96.39259,38.8884c12.4387,6.2158,21.1148,17.9091,28.7598,29.5242,35.1564,53.4124,58.5023,113.5426,82.38679,172.8586,2.4226,6.0164,4.9577,12.1931,9.47882,16.8434,4.52108,4.6504,11.56608,7.4596,17.63468,5.1711,9.965-3.7577,11.0565-17.3829,9.2201-27.8733-9.9943-57.0893-54.664-104.8967-58.44239-162.731C184.48129,58.153,189.258,39.9042,203.57,37.2315c8.34458-1.5584,16.83928,3.3693,21.91108,10.1765,5.0718,6.8073,7.3953,15.2205,9.5145,23.4407a1040.12933,1040.12933,0,0,1,22.149,110.2829c1.2428,8.5655,2.4889,17.4552,7.168,24.7365,4.6792,7.2814,13.8817,12.4526,22.0655,9.6353,11.9033-4.0978,13.3316-20.1026,12.607-32.6706q-2.95935-51.33165-5.9187-102.6632c-.6262-10.8608-1.1583-22.2438,3.4532-32.097,4.61142-9.8533,16.1891-17.364,26.3976-13.6041,8.9851,3.3092,13.24382,13.4073,15.894,22.6084,17.3535,60.2478,7.2227,127.842-27.0311,180.3551-27.0286,41.4366-67.314,72.6548-95.9643,112.9871-19.43239,27.3559-32.66978,58.3037-40.16059,90.946-2.8394,12.3734-6.571,18.6541-20.1091,16.1993-13.444-2.4378-27.5728-6.5423-40.6858-10.3417A177.21437,177.21437,0,0,1,64.161,423.3552Z" />
  <path class="cls-3" d="M351.85038,201.9672c-2.6888,5.7217-5.7253,11.582-5.7345,17.904-.0091,6.322,4.2434,13.1896,10.5529,13.5862,6.0106.3779,10.778-4.9447,13.7508-10.1823,2.9729-5.2376,5.5138-11.2465,10.7705-14.1854,6.80992-3.8073,15.4608-.8847,21.9501,3.4464,6.4894,4.3311,12.2387,10.0878,19.6474,12.5335,11.0615,3.6515,24.3903-1.8754,29.622-12.283,5.2317-10.4077,1.7157-24.4021-7.8138-31.1011-7.6844-5.402-17.6477-5.9524-27.02778-6.4463-9.38012-.494-19.39352-1.3534-26.76432-7.176-7.37068-5.8226-9.9886-18.4748-2.6902-24.3879,5.55952-4.5042,13.5964-3.1415,20.7301-2.5878,27.6337,2.1446,55.8658-13.1475,69.16642-37.4646,4.40188-8.0478,7.19408-18.0739,3.03688-26.2508-5.368-10.5588-20.1492-12.9482-31.2205-8.7372-11.0712,4.2109-19.5415,13.12-28.4345,20.9443-6.6632,5.8624-15.8714,11.5227-23.857,7.6503-6.0617-2.9395-8.6381-10.7131-7.2182-17.2985s6.0122-12.0584,11.1486-16.4174,10.942-7.8895,15.9804-12.3615c4.1387-3.6734,7.84-8.1799,9.0939-13.5697,1.2539-5.3899-.51058-11.7534-5.24858-14.6125-7.62652-4.6021-17.01972,1.6453-23.68442,7.555-6.6648,5.9096-16.0683,12.1483-23.68658,7.5325-3.76182-2.2793-5.92222-6.7868-9.95952-8.5321a8.92971,8.92971,0,0,0-10.7299,3.3126c-4.4001,6.9574,8.38542,29.2098,10.4386,37.0757a197.00769,197.00769,0,0,1-11.8188,132.0536Z" />
  <path class="cls-4" d="M234.14868,375.4795c20.051-22.5063,42.6861-43.303,57.2531-69.692,6.0478-10.956,10.9748-23.1884,20.8993-30.8117,12.2173-9.3843,29.303-9.5066,44.2878-5.9312,38.115,9.0943,70.0563,41.0626,78.168,79.3987,8.1116,38.3361-8.5777,80.9986-41.0932,102.8663-19.2976,12.9783-42.5789,18.5608-65.554,22.1632a462.758,462.758,0,0,1-75.154,5.5693c-16.5346-.1256-66.34389-2.2333-60.88309-28.6806C197.96809,421.8094,215.10818,396.8516,234.14868,375.4795Z" />
  <path class="cls-3" d="M106.14476,213.90988c-18.59741-4.01413-35.031-16.20066-45.40662-32.14814s-14.85377-35.4033-13.85245-54.40262c2.08279-39.51977,29.0503-76.63891,65.99165-90.83351s81.826-4.68443,109.8364,23.27213c-40.25423-11.84845-86.99641,3.53184-112.32831,36.98455S83.82648,178.37563,106.14476,213.90988Z" />
  <path class="cls-4" d="M171.94551,147.77466l7.8455-27.229,3.32025,37.86362,33.94907-22.68505-24.95415,27.59942,21.19969,14.197-24.91228-4.53173,14.83673,38.08962-20.11906-29.41174-13.70569,34.99663V176.79263l-22.63109,15.293,18.908-20.1702-30.95123-13.50617,30.95123,4.91437s-12.07911-31.66613-11.52453-30.59S171.94551,147.77466,171.94551,147.77466Z" />
  <path class="cls-3" d="M449.53314,461.93553c-7.62046-25.1453,2.034-51.95427,11.91218-76.30132s20.30712-50.61941,14.16358-76.16573c-1.1005-4.57618-2.92225-9.30058-6.72382-12.07558s-10.032-2.59035-12.46941,1.436c1.88324-1.89918-1.70126-6.32775-4.26026-7.10557s-5.39629.83814-6.72182,3.16118a12.6941,12.6941,0,0,0-1.101,7.80853c1.869-5.40929-8.98953-11.54049-14.52888-10.102s-8.881,7.40061-9.314,13.1073,1.36376,11.31066,2.77242,16.85767a129.21861,129.21861,0,0,1-4.34713,76.94119c-4.27322-1.76543-7.40746-4.05773-8.85226-8.44973S408.459,381.96015,408.3,377.33934c-.44766-13.00886-1.01063-26.12209-4.16788-38.75s-9.12355-24.8844-18.8677-33.51472c-1.77539-1.57245-3.968-3.10148-6.31071-2.732s-3.94784,3.79178-2.03357,5.19184c-2.69182-2.39106-10.19878-.73-13.00287,1.52832a7.94693,7.94693,0,0,0-1.88253,9.75538c-3.57208-2.83054-11.45511.66969-12.93341,4.98087s2.27958,9.52034,6.837,9.47739a249.60389,249.60389,0,0,1,38.05967,69.76627c1.80894,5.08689,2.61357,12.29736-2.33824,14.4487-3.49219,1.51719-7.34649-.8128-10.55788-2.85833a96.39356,96.39356,0,0,0-49.82865-14.9863c-3.82442-.06558-7.79351.13281-11.20285,1.86685s-6.112,5.3763-5.64208,9.17231c-3.89751-2.86826-11.63506.93253-12.22576,5.7355s5.08941,9.13663,9.56577,7.29824c-3.35592-.50938-4.55522,4.90643-3.96355,8.24882s3.691,5.78927,6.97339,6.654,6.74875.45837,10.118.04623c-3.22135.90739-4.24446,5.93091-2.0533,8.46059s5.79192,3.23,9.12395,3.543c13.81316,1.29764,27.66255-1.42372,41.53-1.84884s28.79505,1.92009,38.88243,11.44543c4.55255,4.2989,7.82737,9.80156,12.34564,14.13647s11.07527,7.48635,16.9914,5.4356S454.68947,465.48778,449.53314,461.93553Z" />
  <path class="cls-4" d="M37.049 438.361L40.829 406.452L47.254 438.174L73.335 446.303L48.766 449.099L43.097 476.692L37.049 449.855L13.236 444.564L37.049 438.361z" />
  <path class="cls-3" d="M244.825 298.358L248.534 266.876L254.212 296.963L278.764 301.296L255.656 307.313L251.083 334.373L244.825 308.276L221.236 302.258L244.825 298.358z" />
  <path class="cls-5" d="M137.87339,339.6157q-.34065-.8028-.6823-1.605l-1.4134-3.3246c-.9251-2.1761-1.8193-4.3668-2.8271-6.5059-.78359-1.6632-3.53659-.4909-2.9701,1.2522.7319,2.252,1.5823,4.4637,2.4001,6.6858l1.206,3.2769.603,1.6384a3.73137,3.73137,0,0,0,1.4451,2.035,1.76789,1.76789,0,0,0,2.5822-1.0505A3.61812,3.61812,0,0,0,137.87339,339.6157Z" />
  <path class="cls-5" d="M180.51669,333.8834a4.42712,4.42712,0,0,0-1.0001-1.6645l-.02859-.0357c-.06571-.0844-.13-.1701-.19411-.2553q-.1917-.2544-.3793-.5116-.77338-1.0602-1.4719-2.1706a42.04547,42.04547,0,0,1-2.4886-4.5974,1.72132,1.72132,0,0,0-3.1414,1.3244,45.83849,45.83849,0,0,0,2.422,5.148q.6342,1.1442,1.3282,2.2547a7.29716,7.29716,0,0,0,2.1535,2.6607A1.92912,1.92912,0,0,0,180.51669,333.8834Z" />
  <path class="cls-5" d="M163.657,348.2661c-.52741-1.0753-1.03471-2.1607-1.509-3.2605-.93741-2.1736-1.75971-4.3984-2.50441-6.6447a1.71918,1.71918,0,1,0-3.3147.9138q1.0023,3.6522,2.315,7.2082c.4307,1.1613.8762,2.3172,1.3497,3.4619q.411.99315.8393,1.979a3.08584,3.08584,0,0,0,1.8374,1.9037,1.92686,1.92686,0,0,0,2.3449-1.3314C165.44129,351.0436,164.27889,349.534,163.657,348.2661Z" />
  <path class="cls-5" d="M136.20949,376.0213a6.36518,6.36518,0,0,0-1.1593-1.8557q-.10065-.1248-.1993-.2512c-.0165-.0236-.1477-.1978-.1677-.2249q-.24-.3249-.47-.6571a26.47257,26.47257,0,0,1-1.7169-2.8462,21.31934,21.31934,0,0,1-1.1985-2.7016,26.86383,26.86383,0,0,1-.9626-3.2864,1.69233,1.69233,0,0,0-2.0566-1.1677,1.71062,1.71062,0,0,0-1.1677,2.0566,28.42881,28.42881,0,0,0,2.1382,6.8808,26.51584,26.51584,0,0,0,1.6037,3.0287,8.8667,8.8667,0,0,0,2.5908,3.151C134.77349,378.929,136.79229,377.6112,136.20949,376.0213Z" />
  <path class="cls-5" d="M157.87149,386.5247a14.63238,14.63238,0,0,0-1.3428-3.1363q-.67245-1.39515-1.3449-2.7902-1.34565-2.7918-2.662-5.5968a1.76831,1.76831,0,0,0-3.2271,1.3606q1.1835,2.86095,2.3406,5.7322.57735,1.4352,1.15471,2.8704a14.71514,14.71514,0,0,0,1.39739,3.1132,2.0187,2.0187,0,0,0,3.6841-1.5531Z" />
  <path class="cls-5" d="M187.14969,377.4473a5.86724,5.86724,0,0,0-.94869-1.8386c-.45161-.6316-.608-.8011-1.03771-1.3868q-1.08885-1.4838-2.0282-3.0699a34.65187,34.65187,0,0,1-2.9472-6.3077,1.8577,1.8577,0,0,0-2.2296-1.2659,1.83449,1.83449,0,0,0-1.2659,2.2296,40.37252,40.37252,0,0,0,2.9629,7.2527q.85756,1.6257,1.872,3.1617a8.62482,8.62482,0,0,0,2.9828,3.2541A1.8199,1.8199,0,0,0,187.14969,377.4473Z" />
  <path class="cls-5" d="M212.74518,365.2946q-.8604-.9507-1.6681-1.9472c-.1299-.1603-.2566-.3228-.3852-.484l-.0027-.0035q-.088-.115-.1754-.2304-.37455-.4962-.7362-1.002a48.12555,48.12555,0,0,1-3.1021-4.9583,1.82155,1.82155,0,0,0-2.4692-.6474,1.85068,1.85068,0,0,0-.64739,2.4691,51.02928,51.02928,0,0,0,5.60869,8.8829c.7745.9958,1.7005,2.2692,3.1652,1.8658a1.99075,1.99075,0,0,0,1.4367-1.8869A3.10825,3.10825,0,0,0,212.74518,365.2946Z" />
  <path class="cls-5" d="M180.95569,403.9865a60.804,60.804,0,0,0-2.6512-5.5875q-1.3032-2.634-2.60649-5.2679a1.76846,1.76846,0,0,0-2.40491-.6306,1.81182,1.81182,0,0,0-.6307,2.405q1.16205,2.65695,2.3239,5.3139a57.03488,57.03488,0,0,0,2.3853,5.2781,1.96264,1.96264,0,0,0,2.4487.8023A1.94107,1.94107,0,0,0,180.95569,403.9865Z" />
  <path class="cls-5" d="M212.91638,393.7475c-1.76738-2.8545-3.846-5.5257-5.8099-8.2483a1.844,1.844,0,1,0-3.184,1.8611c1.8388,2.8024,3.5897,5.692,5.6209,8.3588a2.14554,2.14554,0,0,0,1.1673.8976,1.95365,1.95365,0,0,0,2.2057-2.8692Z" />
  <path class="cls-5" d="M149.51149,424.2425a26.92085,26.92085,0,0,0-2.6337-5.5511,48.13071,48.13071,0,0,0-3.4666-5.0451,1.83841,1.83841,0,0,0-2.8835,2.2249,44.36577,44.36577,0,0,1,3.0068,4.7744c.8997,1.6566,1.6217,3.3954,2.47851,5.0718a1.917,1.917,0,0,0,3.49849-1.4749Z" />
  <path class="cls-5" d="M172.79279,430.3815c-.0474-.0601-.0819-.1032-.0926-.116-.1199-.1552-.2379-.3118-.359-.466-.1509-.1924-.3086-.379-.4627-.5686q-.20023-.2466-.3953-.497c-.0217-.0311-.2518-.3336-.3024-.402q-.9018-1.21965-1.7011-2.5111-.7725-1.24815-1.4432-2.5556-.3345-.65205-.6424-1.3172-.1536-.33225-.3007-.6676c-.0086-.0196-.0667-.1537-.0905-.2079-.0204-.0506-.1261-.3055-.1243-.301a1.79627,1.79627,0,0,0-2.1527-1.2223,1.77276,1.77276,0,0,0-1.2223,2.1527,34.93162,34.93162,0,0,0,6.4277,11.5412,2.03533,2.03533,0,0,0,2.8615,0A2.085,2.085,0,0,0,172.79279,430.3815Z" />
  <path class="cls-5" d="M207.38938,422.3674c-.626-.8739-1.336-1.6851-2.0311-2.5037-.1645-.1937-.3222-.3926-.4841-.5882l-.01318-.0158c-.063-.0834-.12652-.1665-.18912-.2503q-.45795-.61305-.88688-1.2471a32.765,32.765,0,0,1-2.82591-5.1179,1.87,1.87,0,0,0-3.4128,1.4387,35.52459,35.52459,0,0,0,2.82671,5.6736c.52369.8395,1.09039,1.6494,1.679,2.4444a13.62835,13.62835,0,0,0,2.25758,2.5426,1.9934,1.9934,0,0,0,2.5748.1533A1.94159,1.94159,0,0,0,207.38938,422.3674Z" />
  <path class="cls-5" d="M236.90868,410.9414a12.56255,12.56255,0,0,0-1.5832-3.2183l-1.6611-2.7447c-1.1263-1.8611-2.2253-3.7391-3.3349-5.6102a1.82059,1.82059,0,1,0-3.14348,1.8376c1.04348,1.9097,2.09848,3.8137,3.125,5.7328q.757,1.4154,1.51408,2.8306a12.46842,12.46842,0,0,0,1.9628,2.9888A1.88154,1.88154,0,0,0,236.90868,410.9414Z" />
  <path class="cls-5" d="M229.86308,438.9263a12.26171,12.26171,0,0,0-1.2777-2.8994c-.4506-.8889-.9026-1.7773-1.3485-2.6687q-1.3152-2.6286-2.6302-5.2574a1.69832,1.69832,0,0,0-2.3088-.6054,1.73794,1.73794,0,0,0-.6054,2.3088l2.4012,5.3913c.3934.8831.7809,1.7689,1.1696,2.6541a12.06391,12.06391,0,0,0,1.5312,2.8629,1.8391,1.8391,0,0,0,2.2248.2871A1.91683,1.91683,0,0,0,229.86308,438.9263Z" />
  <path class="cls-5" d="M198.46789,453.0321c-1.60289-3.7301-3.4405-7.3668-5.1862-11.0322a1.8844,1.8844,0,0,0-2.5653-.6727,1.934,1.934,0,0,0-.6727,2.5654c1.6097,3.74,3.1365,7.5305,4.8894,11.2056a2.05709,2.05709,0,0,0,2.8005.7343A2.11127,2.11127,0,0,0,198.46789,453.0321Z" />
  <path class="cls-5" d="M185.48969,467.329c-.669-.7199-1.2941-1.4755-1.9253-2.2279l-.0141-.0165c-.087-.1166-.1752-.232-.2614-.349q-.21225-.28845-.4174-.582-.4353-.62325-.8372-1.2691a28.56974,28.56974,0,0,1-1.4259-2.5774q-.2988-.6126-.5665-1.2404c-.0206-.0509-.0534-.1313-.0741-.1828q-.0666-.16635-.1311-.3333c-.09669-.2506-.1892-.5027-.2795-.7555a1.85983,1.85983,0,1,0-3.5859.9885,29.92465,29.92465,0,0,0,6.5463,11.5174,2.11871,2.11871,0,0,0,2.9721,0A2.14625,2.14625,0,0,0,185.48969,467.329Z" />
  <path class="cls-5" d="M225.64758,464.9468c-1.1124-1.6674-2.3324-3.2644-3.5153-4.8823a2.11146,2.11146,0,0,0-1.1626-.894,1.98852,1.98852,0,0,0-1.499.1961,1.96306,1.96306,0,0,0-.8939,1.1626,1.92728,1.92728,0,0,0,.1961,1.499c1.14112,1.6455,2.2506,3.3186,3.4612,4.9138a2.16923,2.16923,0,0,0,1.1813.9084,2.02026,2.02026,0,0,0,1.5231-.1993,1.97652,1.97652,0,0,0,.7091-2.7043Z" />
  <path class="cls-5" d="M439.39308,82.8559q.6588-.5712,1.31692-1.1433l2.72808-2.3683c1.7855-1.55,3.5946-3.0752,5.3195-4.6926,1.3411-1.2576-.6217-3.516-2.1057-2.4404-1.9173,1.3897-3.7598,2.8796-5.6223,4.3419q-1.37325,1.078-2.7464,2.1562L436.91,79.7875a3.7317,3.7317,0,0,0-1.49132,2.0014,1.768,1.768,0,0,0,1.7945,2.1334A3.618,3.618,0,0,0,439.39308,82.8559Z" />
  <path class="cls-5" d="M457.97518,121.6633a4.42721,4.42721,0,0,0,1.2757-1.4639l.0252-.0382c.06-.0885.1218-.1761.1831-.2633q.183-.2607.37-.5184.77055-1.06215,1.6121-2.0687a42.06108,42.06108,0,0,1,3.6079-3.7831,1.72133,1.72133,0,0,0-2.22718-2.5811,45.84181,45.84181,0,0,0-4.15232,3.8893q-.8934.95565-1.7363,1.9578a7.2962,7.2962,0,0,0-1.8685,2.8681A1.92909,1.92909,0,0,0,457.97518,121.6633Z" />
  <path class="cls-5" d="M439.10058,110.0503c.8606-.8328,1.7372-1.6496,2.6376-2.4394,1.7793-1.5611,3.643-3.0283,5.5509-4.4285a1.71914,1.71914,0,1,0-1.8899-2.8723q-3.16635,2.078-6.1454,4.4217c-.9723.7673-1.9349,1.547-2.8783,2.3499q-.81822.69675-1.6244,1.4078a3.08572,3.08572,0,0,0-1.2456,2.3342,1.92677,1.92677,0,0,0,1.9886,1.8211C437.00728,112.603,438.08568,111.0324,439.10058,110.0503Z" />
  <path class="cls-5" d="M404.24338,92.4807a6.36115,6.36115,0,0,0,1.40862-1.6743q.08772-.1341.17758-.267c.0175-.0229.1428-.2013.16242-.2287q.23517-.3285.48048-.6495a26.46356,26.46356,0,0,1,2.17952-2.5097,21.289,21.289,0,0,1,2.20128-1.972,26.86341,26.86341,0,0,1,2.8305-1.9277,1.69244,1.69244,0,0,0,.4778-2.3162,1.71059,1.71059,0,0,0-2.3162-.4778,28.42227,28.42227,0,0,0-5.8883,4.1527,26.50286,26.50286,0,0,0-2.3879,2.4582,8.86574,8.86574,0,0,0-2.2004,3.4351C401.03488,92.0096,402.91018,93.5247,404.24338,92.4807Z" />
  <path class="cls-5" d="M400.919,116.3242a14.6306,14.6306,0,0,0,2.57058-2.2432q1.12035-1.0692,2.2407-2.1385,2.24175-2.13975,4.5054-4.2557a1.76832,1.76832,0,0,0-2.288-2.6515q-2.3577,2.0067-4.7333,3.9916-1.1877.99105-2.37538,1.9823a14.71474,14.71474,0,0,0-2.53192,2.288,2.01871,2.01871,0,0,0,2.61192,3.027Z" />
  <path class="cls-5" d="M418.56908,141.3858a5.86593,5.86593,0,0,0,1.4573-1.4686c.4619-.6241.575-.8251.9999-1.4143q1.0767-1.4928,2.2964-2.8748a34.64787,34.64787,0,0,1,5.0941-4.7459,1.85766,1.85766,0,0,0,.5179-2.5111,1.83458,1.83458,0,0,0-2.511-.518,40.37324,40.37324,0,0,0-5.9883,5.0519q-1.28265,1.3164-2.4318,2.7544a8.6252,8.6252,0,0,0-2.1778,3.8397A1.81994,1.81994,0,0,0,418.56908,141.3858Z" />
  <path class="cls-5" d="M438.01138,161.9968q.63975-1.1112,1.3392-2.1866c.11242-.1728.2281-.3435.3419-.5154l.00252-.0037q.08217-.1191.16518-.2378.35673-.5091.7267-1.0089a48.13334,48.13334,0,0,1,3.7624-4.4779,1.82166,1.82166,0,0,0-.1442-2.5486,1.85065,1.85065,0,0,0-2.5485.1442,51.03786,51.03786,0,0,0-6.7248,8.071c-.709,1.0434-1.6354,2.3165-.8007,3.5859a1.99076,1.99076,0,0,0,2.2376.7859A3.10788,3.10788,0,0,0,438.01138,161.9968Z" />
  <path class="cls-5" d="M391.412,143.663a60.79769,60.79769,0,0,0,4.49988-4.2426q2.105-2.0508,4.2096-4.1016a1.76836,1.76836,0,0,0-.1404-2.4823,1.81181,1.81181,0,0,0-2.4823.1403q-2.17017,1.9236-4.3404,3.847a57.07793,57.07793,0,0,0-4.28738,3.8943,1.96291,1.96291,0,0,0-.00952,2.5769A1.941,1.941,0,0,0,391.412,143.663Z" />
  <path class="cls-5" d="M410.99318,170.9192c2.1717-2.5603,4.0732-5.3603,6.0591-8.067a1.844,1.844,0,1,0-2.751-2.4564c-2.1002,2.6123-4.3104,5.1677-6.22228,7.9212a2.14545,2.14545,0,0,0-.49472,1.387,1.95369,1.95369,0,0,0,3.4089,1.2152Z" />
  <path class="cls-5" d="M362.45938,119.982a26.926,26.926,0,0,0,4.4707-4.2146,48.17643,48.17643,0,0,0,3.7328-4.8515,1.83839,1.83839,0,0,0-3.0045-2.0585,44.37537,44.37537,0,0,1-3.6169,4.3307c-1.2992,1.3659-2.7312,2.5882-4.06248,3.9194a1.917,1.917,0,0,0,2.48038,2.8745Z" />
  <path class="cls-5" d="M363.786,144.0226c.04258-.0636.073-.1097.08178-.1238.1108-.1619.2234-.3223.3329-.485.1365-.2029.2655-.4104.3985-.6154q.17295-.26625.3512-.529c.0229-.0303.2398-.3423.2894-.4115q.88275-1.2336,1.8654-2.3916.94965-1.11915,1.9872-2.1599.51735-.51885,1.0555-1.0166.2688-.24855.5425-.4917c.016-.0142.1257-.1108.1699-.1501.0419-.035.2518-.214.2482-.2109a1.79635,1.79635,0,0,0,.5002-2.4244,1.77278,1.77278,0,0,0-2.4245-.5002,34.93128,34.93128,0,0,0-9.0018,9.6685,2.03535,2.03535,0,0,0,.881,2.7226A2.08509,2.08509,0,0,0,363.786,144.0226Z" />
  <path class="cls-5" d="M382.06178,174.4717c.6387-.8647,1.1919-1.7899,1.7568-2.7033.1336-.2161.2743-.4274.4106-.6416l.0109-.0175c.05992-.0856.1195-.1716.18-.2569q.4422-.6246.9134-1.2279a32.76974,32.76974,0,0,1,3.9994-4.2642,1.87,1.87,0,0,0-2.4195-2.8041,35.52006,35.52006,0,0,0-4.5278,4.4361c-.6375.7567-1.23358,1.5452-1.8087,2.35a13.627,13.627,0,0,0-1.7242,2.9307,1.99351,1.99351,0,0,0,.6468,2.4969A1.94167,1.94167,0,0,0,382.06178,174.4717Z" />
  <path class="cls-5" d="M402.02068,199.0396a12.57031,12.57031,0,0,0,2.5746-2.497q1.04985-1.21275,2.1-2.4255c1.4239-1.6446,2.8724-3.2683,4.311-4.9001a1.8206,1.8206,0,1,0-2.7161-2.4251c-1.4957,1.5808-2.9825,3.1707-4.4923,4.7381q-1.1136,1.15605-2.227,2.3121a12.46813,12.46813,0,0,0-2.2394,2.7875A1.88158,1.88158,0,0,0,402.02068,199.0396Z" />
  <path class="cls-5" d="M373.22588,200.9516a12.26182,12.26182,0,0,0,2.3652-2.1081q1.06065-1.05375,2.12392-2.1047,2.09607-2.0604,4.19238-4.121a1.69823,1.69823,0,0,0-.1349-2.383,1.73781,1.73781,0,0,0-2.383.1348q-2.1951,1.9722-4.3901,3.9443-1.0788.9693-2.1652,1.93a12.06229,12.06229,0,0,0-2.2525,2.3382,1.8391,1.8391,0,0,0,.4118,2.2051A1.91691,1.91691,0,0,0,373.22588,200.9516Z" />
  <path class="cls-5" d="M350.13988,175.4239c3.0554-2.6734,5.9497-5.5413,8.8997-8.3307a1.88431,1.88431,0,0,0-.1498-2.6478,1.93387,1.93387,0,0,0-2.64778.1498c-3.06282,2.6829-6.19922,5.3025-9.15622,8.1017a2.05734,2.05734,0,0,0,.1636,2.8906A2.11132,2.11132,0,0,0,350.13988,175.4239Z" />
  <path class="cls-5" d="M332.54178,167.4775c.479-.8581,1.0054-1.6855,1.527-2.5176l.0114-.0185c.0841-.1187.1667-.2382.2516-.3562q.2091-.2907.4251-.5763.459-.606.9498-1.1873a28.5826,28.5826,0,0,1,2.0132-2.15q.491-.473,1.0057-.921c.0421-.0352.1085-.0911.1512-.1267q.1377-.1146.2768-.2274.3129-.25365.6327-.4985a1.85983,1.85983,0,1,0-2.0445-3.1074,29.92423,29.92423,0,0,0-8.9426,9.7742,2.11873,2.11873,0,0,0,.9149,2.8277A2.14633,2.14633,0,0,0,332.54178,167.4775Z" />
  <path class="cls-5" d="M347.17138,204.9516c1.244-1.5717,2.3877-3.224,3.563-4.8476a2.11243,2.11243,0,0,0,.49262-1.3814,1.98817,1.98817,0,0,0-.648-1.3658,1.96406,1.96406,0,0,0-1.38142-.4926,1.92776,1.92776,0,0,0-1.3658.648c-1.2142,1.5924-2.4646,3.163-3.6096,4.806a2.16919,2.16919,0,0,0-.5006,1.4035,2.02038,2.02038,0,0,0,.6585,1.3878,1.97665,1.97665,0,0,0,2.7913-.1579Z" />
</svg>